<?xml version="1.0" encoding="utf-8" standalone="no"?>
<!DOCTYPE svg PUBLIC "-//W3C//DTD SVG 1.1//EN"
  "http://www.w3.org/Graphics/SVG/1.1/DTD/svg11.dtd">
<!-- Created with matplotlib (https://matplotlib.org/) -->
<svg height="345.6pt" version="1.1" viewBox="0 0 460.8 345.6" width="460.8pt" xmlns="http://www.w3.org/2000/svg" xmlns:xlink="http://www.w3.org/1999/xlink">
 <defs>
  <style type="text/css">
*{stroke-linecap:butt;stroke-linejoin:round;}
  </style>
 </defs>
 <g id="figure_1">
  <g id="patch_1">
   <path d="M 0 345.6 
L 460.8 345.6 
L 460.8 0 
L 0 0 
z
" style="fill:#ffffff;"/>
  </g>
  <g id="axes_1">
   <g id="patch_2">
    <path d="M 57.6 276.48 
L 414.72 276.48 
L 414.72 41.472 
L 57.6 41.472 
z
" style="fill:#e5e5e5;"/>
   </g>
   <g id="matplotlib.axis_1">
    <g id="xtick_1">
     <g id="line2d_1">
      <path clip-path="url(#p5b27a0f321)" d="M 93.64921 276.48 
L 93.64921 41.472 
" style="fill:none;stroke:#ffffff;stroke-linecap:square;stroke-width:0.8;"/>
     </g>
     <g id="line2d_2">
      <defs>
       <path d="M 0 0 
L 0 3.5 
" id="m5845c4265e" style="stroke:#555555;stroke-width:0.8;"/>
      </defs>
      <g>
       <use style="fill:#555555;stroke:#555555;stroke-width:0.8;" x="93.64921" xlink:href="#m5845c4265e" y="276.48"/>
      </g>
     </g>
     <g id="text_1">
      <!-- 2006 -->
      <defs>
       <path d="M 19.1875 8.296875 
L 53.609375 8.296875 
L 53.609375 0 
L 7.328125 0 
L 7.328125 8.296875 
Q 12.9375 14.109375 22.625 23.890625 
Q 32.328125 33.6875 34.8125 36.53125 
Q 39.546875 41.84375 41.421875 45.53125 
Q 43.3125 49.21875 43.3125 52.78125 
Q 43.3125 58.59375 39.234375 62.25 
Q 35.15625 65.921875 28.609375 65.921875 
Q 23.96875 65.921875 18.8125 64.3125 
Q 13.671875 62.703125 7.8125 59.421875 
L 7.8125 69.390625 
Q 13.765625 71.78125 18.9375 73 
Q 24.125 74.21875 28.421875 74.21875 
Q 39.75 74.21875 46.484375 68.546875 
Q 53.21875 62.890625 53.21875 53.421875 
Q 53.21875 48.921875 51.53125 44.890625 
Q 49.859375 40.875 45.40625 35.40625 
Q 44.1875 33.984375 37.640625 27.21875 
Q 31.109375 20.453125 19.1875 8.296875 
z
" id="DejaVuSans-50"/>
       <path d="M 31.78125 66.40625 
Q 24.171875 66.40625 20.328125 58.90625 
Q 16.5 51.421875 16.5 36.375 
Q 16.5 21.390625 20.328125 13.890625 
Q 24.171875 6.390625 31.78125 6.390625 
Q 39.453125 6.390625 43.28125 13.890625 
Q 47.125 21.390625 47.125 36.375 
Q 47.125 51.421875 43.28125 58.90625 
Q 39.453125 66.40625 31.78125 66.40625 
z
M 31.78125 74.21875 
Q 44.046875 74.21875 50.515625 64.515625 
Q 56.984375 54.828125 56.984375 36.375 
Q 56.984375 17.96875 50.515625 8.265625 
Q 44.046875 -1.421875 31.78125 -1.421875 
Q 19.53125 -1.421875 13.0625 8.265625 
Q 6.59375 17.96875 6.59375 36.375 
Q 6.59375 54.828125 13.0625 64.515625 
Q 19.53125 74.21875 31.78125 74.21875 
z
" id="DejaVuSans-48"/>
       <path d="M 33.015625 40.375 
Q 26.375 40.375 22.484375 35.828125 
Q 18.609375 31.296875 18.609375 23.390625 
Q 18.609375 15.53125 22.484375 10.953125 
Q 26.375 6.390625 33.015625 6.390625 
Q 39.65625 6.390625 43.53125 10.953125 
Q 47.40625 15.53125 47.40625 23.390625 
Q 47.40625 31.296875 43.53125 35.828125 
Q 39.65625 40.375 33.015625 40.375 
z
M 52.59375 71.296875 
L 52.59375 62.3125 
Q 48.875 64.0625 45.09375 64.984375 
Q 41.3125 65.921875 37.59375 65.921875 
Q 27.828125 65.921875 22.671875 59.328125 
Q 17.53125 52.734375 16.796875 39.40625 
Q 19.671875 43.65625 24.015625 45.921875 
Q 28.375 48.1875 33.59375 48.1875 
Q 44.578125 48.1875 50.953125 41.515625 
Q 57.328125 34.859375 57.328125 23.390625 
Q 57.328125 12.15625 50.6875 5.359375 
Q 44.046875 -1.421875 33.015625 -1.421875 
Q 20.359375 -1.421875 13.671875 8.265625 
Q 6.984375 17.96875 6.984375 36.375 
Q 6.984375 53.65625 15.1875 63.9375 
Q 23.390625 74.21875 37.203125 74.21875 
Q 40.921875 74.21875 44.703125 73.484375 
Q 48.484375 72.75 52.59375 71.296875 
z
" id="DejaVuSans-54"/>
      </defs>
      <g style="fill:#555555;" transform="translate(70.56902 302.78544)rotate(-30)scale(0.1 -0.1)">
       <use xlink:href="#DejaVuSans-50"/>
       <use x="63.623047" xlink:href="#DejaVuSans-48"/>
       <use x="127.246094" xlink:href="#DejaVuSans-48"/>
       <use x="190.869141" xlink:href="#DejaVuSans-54"/>
      </g>
     </g>
    </g>
    <g id="xtick_2">
     <g id="line2d_3">
      <path clip-path="url(#p5b27a0f321)" d="M 146.281057 276.48 
L 146.281057 41.472 
" style="fill:none;stroke:#ffffff;stroke-linecap:square;stroke-width:0.8;"/>
     </g>
     <g id="line2d_4">
      <g>
       <use style="fill:#555555;stroke:#555555;stroke-width:0.8;" x="146.281057" xlink:href="#m5845c4265e" y="276.48"/>
      </g>
     </g>
     <g id="text_2">
      <!-- 2008 -->
      <defs>
       <path d="M 31.78125 34.625 
Q 24.75 34.625 20.71875 30.859375 
Q 16.703125 27.09375 16.703125 20.515625 
Q 16.703125 13.921875 20.71875 10.15625 
Q 24.75 6.390625 31.78125 6.390625 
Q 38.8125 6.390625 42.859375 10.171875 
Q 46.921875 13.96875 46.921875 20.515625 
Q 46.921875 27.09375 42.890625 30.859375 
Q 38.875 34.625 31.78125 34.625 
z
M 21.921875 38.8125 
Q 15.578125 40.375 12.03125 44.71875 
Q 8.5 49.078125 8.5 55.328125 
Q 8.5 64.0625 14.71875 69.140625 
Q 20.953125 74.21875 31.78125 74.21875 
Q 42.671875 74.21875 48.875 69.140625 
Q 55.078125 64.0625 55.078125 55.328125 
Q 55.078125 49.078125 51.53125 44.71875 
Q 48 40.375 41.703125 38.8125 
Q 48.828125 37.15625 52.796875 32.3125 
Q 56.78125 27.484375 56.78125 20.515625 
Q 56.78125 9.90625 50.3125 4.234375 
Q 43.84375 -1.421875 31.78125 -1.421875 
Q 19.734375 -1.421875 13.25 4.234375 
Q 6.78125 9.90625 6.78125 20.515625 
Q 6.78125 27.484375 10.78125 32.3125 
Q 14.796875 37.15625 21.921875 38.8125 
z
M 18.3125 54.390625 
Q 18.3125 48.734375 21.84375 45.5625 
Q 25.390625 42.390625 31.78125 42.390625 
Q 38.140625 42.390625 41.71875 45.5625 
Q 45.3125 48.734375 45.3125 54.390625 
Q 45.3125 60.0625 41.71875 63.234375 
Q 38.140625 66.40625 31.78125 66.40625 
Q 25.390625 66.40625 21.84375 63.234375 
Q 18.3125 60.0625 18.3125 54.390625 
z
" id="DejaVuSans-56"/>
      </defs>
      <g style="fill:#555555;" transform="translate(123.200867 302.78544)rotate(-30)scale(0.1 -0.1)">
       <use xlink:href="#DejaVuSans-50"/>
       <use x="63.623047" xlink:href="#DejaVuSans-48"/>
       <use x="127.246094" xlink:href="#DejaVuSans-48"/>
       <use x="190.869141" xlink:href="#DejaVuSans-56"/>
      </g>
     </g>
    </g>
    <g id="xtick_3">
     <g id="line2d_5">
      <path clip-path="url(#p5b27a0f321)" d="M 198.985003 276.48 
L 198.985003 41.472 
" style="fill:none;stroke:#ffffff;stroke-linecap:square;stroke-width:0.8;"/>
     </g>
     <g id="line2d_6">
      <g>
       <use style="fill:#555555;stroke:#555555;stroke-width:0.8;" x="198.985003" xlink:href="#m5845c4265e" y="276.48"/>
      </g>
     </g>
     <g id="text_3">
      <!-- 2010 -->
      <defs>
       <path d="M 12.40625 8.296875 
L 28.515625 8.296875 
L 28.515625 63.921875 
L 10.984375 60.40625 
L 10.984375 69.390625 
L 28.421875 72.90625 
L 38.28125 72.90625 
L 38.28125 8.296875 
L 54.390625 8.296875 
L 54.390625 0 
L 12.40625 0 
z
" id="DejaVuSans-49"/>
      </defs>
      <g style="fill:#555555;" transform="translate(175.904813 302.78544)rotate(-30)scale(0.1 -0.1)">
       <use xlink:href="#DejaVuSans-50"/>
       <use x="63.623047" xlink:href="#DejaVuSans-48"/>
       <use x="127.246094" xlink:href="#DejaVuSans-49"/>
       <use x="190.869141" xlink:href="#DejaVuSans-48"/>
      </g>
     </g>
    </g>
    <g id="xtick_4">
     <g id="line2d_7">
      <path clip-path="url(#p5b27a0f321)" d="M 251.61685 276.48 
L 251.61685 41.472 
" style="fill:none;stroke:#ffffff;stroke-linecap:square;stroke-width:0.8;"/>
     </g>
     <g id="line2d_8">
      <g>
       <use style="fill:#555555;stroke:#555555;stroke-width:0.8;" x="251.61685" xlink:href="#m5845c4265e" y="276.48"/>
      </g>
     </g>
     <g id="text_4">
      <!-- 2012 -->
      <g style="fill:#555555;" transform="translate(228.53666 302.78544)rotate(-30)scale(0.1 -0.1)">
       <use xlink:href="#DejaVuSans-50"/>
       <use x="63.623047" xlink:href="#DejaVuSans-48"/>
       <use x="127.246094" xlink:href="#DejaVuSans-49"/>
       <use x="190.869141" xlink:href="#DejaVuSans-50"/>
      </g>
     </g>
    </g>
    <g id="xtick_5">
     <g id="line2d_9">
      <path clip-path="url(#p5b27a0f321)" d="M 304.320795 276.48 
L 304.320795 41.472 
" style="fill:none;stroke:#ffffff;stroke-linecap:square;stroke-width:0.8;"/>
     </g>
     <g id="line2d_10">
      <g>
       <use style="fill:#555555;stroke:#555555;stroke-width:0.8;" x="304.320795" xlink:href="#m5845c4265e" y="276.48"/>
      </g>
     </g>
     <g id="text_5">
      <!-- 2014 -->
      <defs>
       <path d="M 37.796875 64.3125 
L 12.890625 25.390625 
L 37.796875 25.390625 
z
M 35.203125 72.90625 
L 47.609375 72.90625 
L 47.609375 25.390625 
L 58.015625 25.390625 
L 58.015625 17.1875 
L 47.609375 17.1875 
L 47.609375 0 
L 37.796875 0 
L 37.796875 17.1875 
L 4.890625 17.1875 
L 4.890625 26.703125 
z
" id="DejaVuSans-52"/>
      </defs>
      <g style="fill:#555555;" transform="translate(281.240605 302.78544)rotate(-30)scale(0.1 -0.1)">
       <use xlink:href="#DejaVuSans-50"/>
       <use x="63.623047" xlink:href="#DejaVuSans-48"/>
       <use x="127.246094" xlink:href="#DejaVuSans-49"/>
       <use x="190.869141" xlink:href="#DejaVuSans-52"/>
      </g>
     </g>
    </g>
    <g id="xtick_6">
     <g id="line2d_11">
      <path clip-path="url(#p5b27a0f321)" d="M 356.952643 276.48 
L 356.952643 41.472 
" style="fill:none;stroke:#ffffff;stroke-linecap:square;stroke-width:0.8;"/>
     </g>
     <g id="line2d_12">
      <g>
       <use style="fill:#555555;stroke:#555555;stroke-width:0.8;" x="356.952643" xlink:href="#m5845c4265e" y="276.48"/>
      </g>
     </g>
     <g id="text_6">
      <!-- 2016 -->
      <g style="fill:#555555;" transform="translate(333.872452 302.78544)rotate(-30)scale(0.1 -0.1)">
       <use xlink:href="#DejaVuSans-50"/>
       <use x="63.623047" xlink:href="#DejaVuSans-48"/>
       <use x="127.246094" xlink:href="#DejaVuSans-49"/>
       <use x="190.869141" xlink:href="#DejaVuSans-54"/>
      </g>
     </g>
    </g>
    <g id="xtick_7">
     <g id="line2d_13">
      <path clip-path="url(#p5b27a0f321)" d="M 409.656588 276.48 
L 409.656588 41.472 
" style="fill:none;stroke:#ffffff;stroke-linecap:square;stroke-width:0.8;"/>
     </g>
     <g id="line2d_14">
      <g>
       <use style="fill:#555555;stroke:#555555;stroke-width:0.8;" x="409.656588" xlink:href="#m5845c4265e" y="276.48"/>
      </g>
     </g>
     <g id="text_7">
      <!-- 2018 -->
      <g style="fill:#555555;" transform="translate(386.576398 302.78544)rotate(-30)scale(0.1 -0.1)">
       <use xlink:href="#DejaVuSans-50"/>
       <use x="63.623047" xlink:href="#DejaVuSans-48"/>
       <use x="127.246094" xlink:href="#DejaVuSans-49"/>
       <use x="190.869141" xlink:href="#DejaVuSans-56"/>
      </g>
     </g>
    </g>
    <g id="text_8">
     <!-- date -->
     <defs>
      <path d="M 45.40625 46.390625 
L 45.40625 75.984375 
L 54.390625 75.984375 
L 54.390625 0 
L 45.40625 0 
L 45.40625 8.203125 
Q 42.578125 3.328125 38.25 0.953125 
Q 33.9375 -1.421875 27.875 -1.421875 
Q 17.96875 -1.421875 11.734375 6.484375 
Q 5.515625 14.40625 5.515625 27.296875 
Q 5.515625 40.1875 11.734375 48.09375 
Q 17.96875 56 27.875 56 
Q 33.9375 56 38.25 53.625 
Q 42.578125 51.265625 45.40625 46.390625 
z
M 14.796875 27.296875 
Q 14.796875 17.390625 18.875 11.75 
Q 22.953125 6.109375 30.078125 6.109375 
Q 37.203125 6.109375 41.296875 11.75 
Q 45.40625 17.390625 45.40625 27.296875 
Q 45.40625 37.203125 41.296875 42.84375 
Q 37.203125 48.484375 30.078125 48.484375 
Q 22.953125 48.484375 18.875 42.84375 
Q 14.796875 37.203125 14.796875 27.296875 
z
" id="DejaVuSans-100"/>
      <path d="M 34.28125 27.484375 
Q 23.390625 27.484375 19.1875 25 
Q 14.984375 22.515625 14.984375 16.5 
Q 14.984375 11.71875 18.140625 8.90625 
Q 21.296875 6.109375 26.703125 6.109375 
Q 34.1875 6.109375 38.703125 11.40625 
Q 43.21875 16.703125 43.21875 25.484375 
L 43.21875 27.484375 
z
M 52.203125 31.203125 
L 52.203125 0 
L 43.21875 0 
L 43.21875 8.296875 
Q 40.140625 3.328125 35.546875 0.953125 
Q 30.953125 -1.421875 24.3125 -1.421875 
Q 15.921875 -1.421875 10.953125 3.296875 
Q 6 8.015625 6 15.921875 
Q 6 25.140625 12.171875 29.828125 
Q 18.359375 34.515625 30.609375 34.515625 
L 43.21875 34.515625 
L 43.21875 35.40625 
Q 43.21875 41.609375 39.140625 45 
Q 35.0625 48.390625 27.6875 48.390625 
Q 23 48.390625 18.546875 47.265625 
Q 14.109375 46.140625 10.015625 43.890625 
L 10.015625 52.203125 
Q 14.9375 54.109375 19.578125 55.046875 
Q 24.21875 56 28.609375 56 
Q 40.484375 56 46.34375 49.84375 
Q 52.203125 43.703125 52.203125 31.203125 
z
" id="DejaVuSans-97"/>
      <path d="M 18.3125 70.21875 
L 18.3125 54.6875 
L 36.8125 54.6875 
L 36.8125 47.703125 
L 18.3125 47.703125 
L 18.3125 18.015625 
Q 18.3125 11.328125 20.140625 9.421875 
Q 21.96875 7.515625 27.59375 7.515625 
L 36.8125 7.515625 
L 36.8125 0 
L 27.59375 0 
Q 17.1875 0 13.234375 3.875 
Q 9.28125 7.765625 9.28125 18.015625 
L 9.28125 47.703125 
L 2.6875 47.703125 
L 2.6875 54.6875 
L 9.28125 54.6875 
L 9.28125 70.21875 
z
" id="DejaVuSans-116"/>
      <path d="M 56.203125 29.59375 
L 56.203125 25.203125 
L 14.890625 25.203125 
Q 15.484375 15.921875 20.484375 11.0625 
Q 25.484375 6.203125 34.421875 6.203125 
Q 39.59375 6.203125 44.453125 7.46875 
Q 49.3125 8.734375 54.109375 11.28125 
L 54.109375 2.78125 
Q 49.265625 0.734375 44.1875 -0.34375 
Q 39.109375 -1.421875 33.890625 -1.421875 
Q 20.796875 -1.421875 13.15625 6.1875 
Q 5.515625 13.8125 5.515625 26.8125 
Q 5.515625 40.234375 12.765625 48.109375 
Q 20.015625 56 32.328125 56 
Q 43.359375 56 49.78125 48.890625 
Q 56.203125 41.796875 56.203125 29.59375 
z
M 47.21875 32.234375 
Q 47.125 39.59375 43.09375 43.984375 
Q 39.0625 48.390625 32.421875 48.390625 
Q 24.90625 48.390625 20.390625 44.140625 
Q 15.875 39.890625 15.1875 32.171875 
z
" id="DejaVuSans-101"/>
     </defs>
     <g style="fill:#555555;" transform="translate(222.63 317.704627)scale(0.12 -0.12)">
      <use xlink:href="#DejaVuSans-100"/>
      <use x="63.476562" xlink:href="#DejaVuSans-97"/>
      <use x="124.755859" xlink:href="#DejaVuSans-116"/>
      <use x="163.964844" xlink:href="#DejaVuSans-101"/>
     </g>
    </g>
   </g>
   <g id="matplotlib.axis_2">
    <g id="ytick_1">
     <g id="line2d_15">
      <path clip-path="url(#p5b27a0f321)" d="M 57.6 275.03892 
L 414.72 275.03892 
" style="fill:none;stroke:#ffffff;stroke-linecap:square;stroke-width:0.8;"/>
     </g>
     <g id="line2d_16">
      <defs>
       <path d="M 0 0 
L -3.5 0 
" id="mab4617a822" style="stroke:#555555;stroke-width:0.8;"/>
      </defs>
      <g>
       <use style="fill:#555555;stroke:#555555;stroke-width:0.8;" x="57.6" xlink:href="#mab4617a822" y="275.03892"/>
      </g>
     </g>
     <g id="text_9">
      <!-- 0 -->
      <g style="fill:#555555;" transform="translate(44.2375 278.838139)scale(0.1 -0.1)">
       <use xlink:href="#DejaVuSans-48"/>
      </g>
     </g>
    </g>
    <g id="ytick_2">
     <g id="line2d_17">
      <path clip-path="url(#p5b27a0f321)" d="M 57.6 238.192302 
L 414.72 238.192302 
" style="fill:none;stroke:#ffffff;stroke-linecap:square;stroke-width:0.8;"/>
     </g>
     <g id="line2d_18">
      <g>
       <use style="fill:#555555;stroke:#555555;stroke-width:0.8;" x="57.6" xlink:href="#mab4617a822" y="238.192302"/>
      </g>
     </g>
     <g id="text_10">
      <!-- 200 -->
      <g style="fill:#555555;" transform="translate(31.5125 241.99152)scale(0.1 -0.1)">
       <use xlink:href="#DejaVuSans-50"/>
       <use x="63.623047" xlink:href="#DejaVuSans-48"/>
       <use x="127.246094" xlink:href="#DejaVuSans-48"/>
      </g>
     </g>
    </g>
    <g id="ytick_3">
     <g id="line2d_19">
      <path clip-path="url(#p5b27a0f321)" d="M 57.6 201.345683 
L 414.72 201.345683 
" style="fill:none;stroke:#ffffff;stroke-linecap:square;stroke-width:0.8;"/>
     </g>
     <g id="line2d_20">
      <g>
       <use style="fill:#555555;stroke:#555555;stroke-width:0.8;" x="57.6" xlink:href="#mab4617a822" y="201.345683"/>
      </g>
     </g>
     <g id="text_11">
      <!-- 400 -->
      <g style="fill:#555555;" transform="translate(31.5125 205.144902)scale(0.1 -0.1)">
       <use xlink:href="#DejaVuSans-52"/>
       <use x="63.623047" xlink:href="#DejaVuSans-48"/>
       <use x="127.246094" xlink:href="#DejaVuSans-48"/>
      </g>
     </g>
    </g>
    <g id="ytick_4">
     <g id="line2d_21">
      <path clip-path="url(#p5b27a0f321)" d="M 57.6 164.499064 
L 414.72 164.499064 
" style="fill:none;stroke:#ffffff;stroke-linecap:square;stroke-width:0.8;"/>
     </g>
     <g id="line2d_22">
      <g>
       <use style="fill:#555555;stroke:#555555;stroke-width:0.8;" x="57.6" xlink:href="#mab4617a822" y="164.499064"/>
      </g>
     </g>
     <g id="text_12">
      <!-- 600 -->
      <g style="fill:#555555;" transform="translate(31.5125 168.298283)scale(0.1 -0.1)">
       <use xlink:href="#DejaVuSans-54"/>
       <use x="63.623047" xlink:href="#DejaVuSans-48"/>
       <use x="127.246094" xlink:href="#DejaVuSans-48"/>
      </g>
     </g>
    </g>
    <g id="ytick_5">
     <g id="line2d_23">
      <path clip-path="url(#p5b27a0f321)" d="M 57.6 127.652446 
L 414.72 127.652446 
" style="fill:none;stroke:#ffffff;stroke-linecap:square;stroke-width:0.8;"/>
     </g>
     <g id="line2d_24">
      <g>
       <use style="fill:#555555;stroke:#555555;stroke-width:0.8;" x="57.6" xlink:href="#mab4617a822" y="127.652446"/>
      </g>
     </g>
     <g id="text_13">
      <!-- 800 -->
      <g style="fill:#555555;" transform="translate(31.5125 131.451664)scale(0.1 -0.1)">
       <use xlink:href="#DejaVuSans-56"/>
       <use x="63.623047" xlink:href="#DejaVuSans-48"/>
       <use x="127.246094" xlink:href="#DejaVuSans-48"/>
      </g>
     </g>
    </g>
    <g id="ytick_6">
     <g id="line2d_25">
      <path clip-path="url(#p5b27a0f321)" d="M 57.6 90.805827 
L 414.72 90.805827 
" style="fill:none;stroke:#ffffff;stroke-linecap:square;stroke-width:0.8;"/>
     </g>
     <g id="line2d_26">
      <g>
       <use style="fill:#555555;stroke:#555555;stroke-width:0.8;" x="57.6" xlink:href="#mab4617a822" y="90.805827"/>
      </g>
     </g>
     <g id="text_14">
      <!-- 1000 -->
      <g style="fill:#555555;" transform="translate(25.15 94.605046)scale(0.1 -0.1)">
       <use xlink:href="#DejaVuSans-49"/>
       <use x="63.623047" xlink:href="#DejaVuSans-48"/>
       <use x="127.246094" xlink:href="#DejaVuSans-48"/>
       <use x="190.869141" xlink:href="#DejaVuSans-48"/>
      </g>
     </g>
    </g>
    <g id="ytick_7">
     <g id="line2d_27">
      <path clip-path="url(#p5b27a0f321)" d="M 57.6 53.959208 
L 414.72 53.959208 
" style="fill:none;stroke:#ffffff;stroke-linecap:square;stroke-width:0.8;"/>
     </g>
     <g id="line2d_28">
      <g>
       <use style="fill:#555555;stroke:#555555;stroke-width:0.8;" x="57.6" xlink:href="#mab4617a822" y="53.959208"/>
      </g>
     </g>
     <g id="text_15">
      <!-- 1200 -->
      <g style="fill:#555555;" transform="translate(25.15 57.758427)scale(0.1 -0.1)">
       <use xlink:href="#DejaVuSans-49"/>
       <use x="63.623047" xlink:href="#DejaVuSans-50"/>
       <use x="127.246094" xlink:href="#DejaVuSans-48"/>
       <use x="190.869141" xlink:href="#DejaVuSans-48"/>
      </g>
     </g>
    </g>
    <g id="text_16">
     <!-- price -->
     <defs>
      <path d="M 18.109375 8.203125 
L 18.109375 -20.796875 
L 9.078125 -20.796875 
L 9.078125 54.6875 
L 18.109375 54.6875 
L 18.109375 46.390625 
Q 20.953125 51.265625 25.265625 53.625 
Q 29.59375 56 35.59375 56 
Q 45.5625 56 51.78125 48.09375 
Q 58.015625 40.1875 58.015625 27.296875 
Q 58.015625 14.40625 51.78125 6.484375 
Q 45.5625 -1.421875 35.59375 -1.421875 
Q 29.59375 -1.421875 25.265625 0.953125 
Q 20.953125 3.328125 18.109375 8.203125 
z
M 48.6875 27.296875 
Q 48.6875 37.203125 44.609375 42.84375 
Q 40.53125 48.484375 33.40625 48.484375 
Q 26.265625 48.484375 22.1875 42.84375 
Q 18.109375 37.203125 18.109375 27.296875 
Q 18.109375 17.390625 22.1875 11.75 
Q 26.265625 6.109375 33.40625 6.109375 
Q 40.53125 6.109375 44.609375 11.75 
Q 48.6875 17.390625 48.6875 27.296875 
z
" id="DejaVuSans-112"/>
      <path d="M 41.109375 46.296875 
Q 39.59375 47.171875 37.8125 47.578125 
Q 36.03125 48 33.890625 48 
Q 26.265625 48 22.1875 43.046875 
Q 18.109375 38.09375 18.109375 28.8125 
L 18.109375 0 
L 9.078125 0 
L 9.078125 54.6875 
L 18.109375 54.6875 
L 18.109375 46.1875 
Q 20.953125 51.171875 25.484375 53.578125 
Q 30.03125 56 36.53125 56 
Q 37.453125 56 38.578125 55.875 
Q 39.703125 55.765625 41.0625 55.515625 
z
" id="DejaVuSans-114"/>
      <path d="M 9.421875 54.6875 
L 18.40625 54.6875 
L 18.40625 0 
L 9.421875 0 
z
M 9.421875 75.984375 
L 18.40625 75.984375 
L 18.40625 64.59375 
L 9.421875 64.59375 
z
" id="DejaVuSans-105"/>
      <path d="M 48.78125 52.59375 
L 48.78125 44.1875 
Q 44.96875 46.296875 41.140625 47.34375 
Q 37.3125 48.390625 33.40625 48.390625 
Q 24.65625 48.390625 19.8125 42.84375 
Q 14.984375 37.3125 14.984375 27.296875 
Q 14.984375 17.28125 19.8125 11.734375 
Q 24.65625 6.203125 33.40625 6.203125 
Q 37.3125 6.203125 41.140625 7.25 
Q 44.96875 8.296875 48.78125 10.40625 
L 48.78125 2.09375 
Q 45.015625 0.34375 40.984375 -0.53125 
Q 36.96875 -1.421875 32.421875 -1.421875 
Q 20.0625 -1.421875 12.78125 6.34375 
Q 5.515625 14.109375 5.515625 27.296875 
Q 5.515625 40.671875 12.859375 48.328125 
Q 20.21875 56 33.015625 56 
Q 37.15625 56 41.109375 55.140625 
Q 45.0625 54.296875 48.78125 52.59375 
z
" id="DejaVuSans-99"/>
     </defs>
     <g style="fill:#555555;" transform="translate(18.654375 173.909437)rotate(-90)scale(0.12 -0.12)">
      <use xlink:href="#DejaVuSans-112"/>
      <use x="63.476562" xlink:href="#DejaVuSans-114"/>
      <use x="104.589844" xlink:href="#DejaVuSans-105"/>
      <use x="132.373047" xlink:href="#DejaVuSans-99"/>
      <use x="187.353516" xlink:href="#DejaVuSans-101"/>
     </g>
    </g>
   </g>
   <g id="line2d_29">
    <path clip-path="url(#p5b27a0f321)" d="M 57.6 265.767788 
L 57.672098 265.030883 
L 57.888394 264.930165 
L 57.960492 265.348746 
L 58.032591 265.244332 
L 58.104689 265.067844 
L 58.393083 265.613015 
L 58.465181 265.57975 
L 58.537279 265.775642 
L 58.609378 265.659216 
L 58.681476 265.797818 
L 59.114067 265.585294 
L 59.186165 265.306241 
L 59.402461 265.105729 
L 59.690854 264.182635 
L 59.907149 264.009844 
L 59.979248 264.150294 
L 60.051346 264.100397 
L 60.123445 263.874937 
L 60.195543 263.966415 
L 60.411838 264.111486 
L 60.556035 262.926895 
L 60.628134 263.063649 
L 60.700232 262.788292 
L 60.916527 262.559136 
L 60.988626 262.253286 
L 61.060724 262.372484 
L 61.132823 262.208933 
L 61.204921 262.312423 
L 61.421216 262.540655 
L 61.925905 261.256271 
L 61.998004 261.369001 
L 62.070102 262.057394 
L 62.142201 261.235942 
L 62.214299 259.106081 
L 62.430594 257.722826 
L 62.502693 258.240276 
L 62.646889 257.177656 
L 62.718988 257.423445 
L 62.935283 256.925399 
L 63.007382 257.032585 
L 63.151578 257.972311 
L 63.223677 259.390679 
L 63.439972 259.094993 
L 63.584169 259.528357 
L 63.656267 258.127546 
L 63.728366 258.221796 
L 63.944661 257.956603 
L 64.088858 259.099613 
L 64.160956 259.557926 
L 64.233055 259.386059 
L 64.44935 259.783386 
L 64.521448 259.559774 
L 64.737744 258.462965 
L 65.026137 258.223644 
L 65.170334 258.462041 
L 65.242433 258.369639 
L 65.458728 258.74941 
L 65.602925 259.332465 
L 65.675023 259.013679 
L 65.747122 259.178155 
L 65.963417 259.289037 
L 66.107614 258.426928 
L 66.179712 258.732778 
L 66.25181 258.399207 
L 66.468106 257.942743 
L 66.540204 258.060093 
L 66.684401 257.676626 
L 67.116992 257.214617 
L 67.18909 256.780328 
L 67.261188 257.224781 
L 67.477484 256.308155 
L 67.693779 257.616564 
L 67.765877 257.126835 
L 67.982173 257.015029 
L 68.054271 257.155479 
L 68.55896 256.198197 
L 68.775255 257.641513 
L 69.063649 258.672717 
L 69.135747 257.552807 
L 69.207846 257.659993 
L 69.496239 256.963284 
L 69.568338 257.307018 
L 69.712535 255.555081 
L 69.784633 256.155692 
L 70.000928 256.925399 
L 70.073027 256.68423 
L 70.289322 257.722826 
L 70.794011 256.747988 
L 71.082405 257.355991 
L 71.154503 257.117595 
L 71.2987 257.864201 
L 71.514995 257.668309 
L 71.659192 257.927958 
L 71.73129 257.759325 
L 71.803389 257.861429 
L 72.019684 257.59254 
L 72.308078 258.609884 
L 72.524373 258.869533 
L 72.596471 258.535038 
L 72.66857 258.813167 
L 72.812767 258.402904 
L 73.029062 258.325286 
L 73.10116 258.535962 
L 73.173259 258.500849 
L 73.750046 258.359475 
L 73.822145 258.402904 
L 74.182637 257.554655 
L 74.254735 257.135151 
L 74.326834 257.293158 
L 74.687326 257.211845 
L 74.759424 257.348599 
L 74.831523 257.944591 
L 75.047818 257.762559 
L 75.264113 256.119656 
L 75.336211 255.097692 
L 75.552507 254.38435 
L 75.624605 254.826031 
L 75.696704 254.730857 
L 75.8409 254.710528 
L 76.057196 254.498928 
L 76.201393 253.925113 
L 76.273491 254.065564 
L 76.345589 253.969466 
L 76.561885 254.15427 
L 76.706081 253.667312 
L 76.77818 253.904785 
L 77.066574 253.689489 
L 77.138672 253.497293 
L 77.282869 252.938262 
L 77.354967 252.713726 
L 77.715459 250.939612 
L 77.787558 251.088378 
L 77.859656 250.460046 
L 78.14805 249.418678 
L 78.220148 248.427207 
L 78.292247 248.436447 
L 78.364345 249.142397 
L 78.652739 247.95411 
L 78.724837 249.207078 
L 78.796936 248.583366 
L 78.869034 248.935417 
L 79.085329 248.912317 
L 79.229526 249.646911 
L 79.734215 248.307085 
L 79.806314 248.2692 
L 79.878412 247.572491 
L 80.094707 246.939538 
L 80.166806 247.133582 
L 80.238904 247.991071 
L 80.311003 247.858936 
L 80.383101 248.126901 
L 80.671495 247.714789 
L 80.743593 248.101491 
L 80.88779 247.66674 
L 81.176184 248.077559 
L 81.32038 247.236148 
L 81.392479 247.208428 
L 81.608774 247.360891 
L 81.752971 246.209564 
L 81.825069 246.030305 
L 81.897168 247.096621 
L 82.185561 247.679677 
L 82.25766 247.602059 
L 82.401857 248.449384 
L 82.618152 248.093646 
L 82.69025 247.393231 
L 82.762349 247.567871 
L 82.834447 247.528138 
L 82.906546 248.025259 
L 83.194939 248.097333 
L 83.339136 248.792194 
L 83.411235 248.268184 
L 83.62753 248.796814 
L 83.699628 248.644351 
L 83.771727 248.695172 
L 83.915924 249.166421 
L 84.132219 249.719908 
L 84.348514 248.927101 
L 84.636908 248.385626 
L 84.709006 248.49466 
L 84.853203 248.58891 
L 84.925301 248.385626 
L 85.213695 248.509445 
L 85.42999 247.402471 
L 85.718384 246.239133 
L 85.862581 247.076293 
L 85.934679 247.299905 
L 86.150975 246.968183 
L 86.439368 245.899094 
L 86.727762 246.030305 
L 86.79986 246.763975 
L 86.871959 246.429481 
L 86.944057 245.797452 
L 87.160352 245.59232 
L 87.304549 246.328763 
L 87.448746 246.118087 
L 87.665041 246.334307 
L 87.953435 247.675057 
L 88.313927 246.51449 
L 88.386026 247.0227 
L 88.458124 243.631555 
L 88.674419 242.823039 
L 88.746518 242.983818 
L 88.818616 242.195631 
L 88.890715 242.415547 
L 89.467502 238.962493 
L 89.683797 238.537444 
L 89.827994 240.004785 
L 89.900092 238.900583 
L 89.972191 238.965265 
L 90.188486 238.358185 
L 90.260585 238.7435 
L 90.404781 237.759421 
L 90.47688 238.058803 
L 90.765273 236.55635 
L 90.981569 235.433669 
L 91.197864 235.908614 
L 91.269962 237.751105 
L 91.342061 237.624284 
L 91.486258 236.442696 
L 91.774651 237.658703 
L 91.84675 237.688272 
L 91.918848 237.094129 
L 91.990947 237.228111 
L 92.207242 236.912836 
L 92.495636 235.292294 
L 92.711931 235.805124 
L 92.784029 235.330179 
L 92.856128 235.645269 
L 92.928226 235.117654 
L 93.000325 235.22022 
L 93.288718 235.801428 
L 93.360817 235.612004 
L 93.505013 236.705117 
L 93.937604 233.34354 
L 94.009702 232.011107 
L 94.225998 231.896519 
L 94.370195 231.459468 
L 94.442293 232.198682 
L 94.514391 231.956589 
L 94.802785 231.877124 
L 95.01908 238.128095 
L 95.307474 234.102159 
L 95.379572 235.028949 
L 95.451671 234.91206 
L 95.523769 234.983672 
L 95.740065 235.599992 
L 95.812163 235.060356 
L 96.028458 239.782558 
L 96.244753 239.454994 
L 96.461049 241.887933 
L 96.533147 241.53311 
L 96.893639 243.402398 
L 97.037836 240.965763 
L 97.398328 241.266993 
L 97.470427 240.104579 
L 97.542525 240.166488 
L 97.75882 238.967575 
L 97.830919 241.532186 
L 97.903017 241.33075 
L 98.047214 240.094414 
L 98.335608 241.363091 
L 98.551903 243.853319 
L 98.768198 243.893976 
L 98.840297 242.591111 
L 98.912395 243.206506 
L 98.984493 243.735969 
L 99.056592 243.641719 
L 99.272887 242.865544 
L 99.344986 243.629707 
L 99.417084 243.601986 
L 99.489182 243.447675 
L 99.561281 241.238348 
L 99.777576 240.878906 
L 99.921773 238.542064 
L 100.06597 239.002225 
L 100.282265 239.029946 
L 100.49856 237.045156 
L 100.570659 237.509013 
L 100.786954 236.564666 
L 101.003249 237.87862 
L 101.291643 237.448027 
L 101.363741 237.686424 
L 101.507938 236.692181 
L 101.580037 234.650101 
L 101.796332 234.335935 
L 102.012627 236.2274 
L 102.084726 236.42052 
L 102.445218 238.61691 
L 102.589414 238.604898 
L 102.80571 238.560545 
L 102.877808 237.265072 
L 102.949907 237.80285 
L 103.094103 240.468642 
L 103.310399 240.27737 
L 103.382497 240.730139 
L 103.454596 240.434453 
L 103.598792 240.848413 
L 103.815088 240.762479 
L 104.031383 239.649962 
L 104.103481 239.801501 
L 104.463973 240.68209 
L 104.536072 239.684151 
L 104.60817 239.977988 
L 104.824466 240.439997 
L 104.896564 239.003149 
L 104.968662 239.324708 
L 105.040761 238.697299 
L 105.112859 239.160195 
L 105.329154 239.783944 
L 105.54545 238.909824 
L 105.617548 238.937544 
L 105.905942 239.263722 
L 105.97804 237.881392 
L 106.050139 238.082828 
L 106.122237 237.629135 
L 106.338532 237.688272 
L 106.410631 237.863835 
L 106.482729 237.513633 
L 106.626926 236.292081 
L 106.843221 235.934486 
L 106.987418 236.095265 
L 107.059517 235.93541 
L 107.131615 236.188591 
L 107.34791 236.396495 
L 107.420009 235.80882 
L 107.636304 237.754801 
L 107.852599 237.349157 
L 108.068894 239.268342 
L 108.140993 238.992246 
L 108.357288 238.919064 
L 108.501485 239.418033 
L 108.573583 239.704479 
L 108.645682 239.175941 
L 108.861977 239.316391 
L 109.006174 241.106214 
L 109.078272 240.352215 
L 109.150371 240.494514 
L 109.438764 239.833841 
L 109.65506 240.988864 
L 109.871355 240.90293 
L 110.015552 239.212901 
L 110.664438 240.549031 
L 110.880733 239.838461 
L 110.952831 240.023265 
L 111.02493 239.856942 
L 111.169127 240.055606 
L 111.45752 239.523371 
L 111.673815 240.124907 
L 111.890111 239.54832 
L 112.178504 237.165278 
L 112.3948 236.720825 
L 112.538997 238.355413 
L 112.611095 237.445255 
L 112.683193 237.728929 
L 112.899489 237.710448 
L 112.971587 237.443407 
L 113.043685 237.808394 
L 113.115784 237.747409 
L 113.187882 237.902644 
L 113.404178 237.945149 
L 113.476276 237.704904 
L 113.548374 236.6275 
L 113.620473 236.986942 
L 113.692571 236.183971 
L 113.908867 235.398556 
L 114.053063 235.62956 
L 114.19726 235.555639 
L 114.557752 236.293929 
L 114.629851 235.670217 
L 114.701949 232.564593 
L 114.918244 230.613992 
L 114.990343 231.304233 
L 115.062441 230.076121 
L 115.13454 230.214816 
L 115.206638 231.129594 
L 115.495032 231.019635 
L 115.56713 231.841087 
L 115.639229 231.618399 
L 115.927622 230.96789 
L 115.999721 231.37261 
L 116.071819 231.148074 
L 116.143918 231.367066 
L 116.216016 231.282056 
L 116.432311 230.590891 
L 116.648607 229.216877 
L 116.720705 228.949835 
L 116.937 229.295418 
L 117.009099 227.946352 
L 117.081197 228.097891 
L 117.225394 228.37602 
L 117.441689 230.247156 
L 117.513788 229.808248 
L 117.730083 230.612144 
L 118.090575 229.881245 
L 118.162673 230.442124 
L 118.234772 230.306294 
L 118.451067 230.322926 
L 118.595264 230.779391 
L 118.667362 230.490173 
L 118.739461 230.658344 
L 118.955756 232.275376 
L 119.027854 231.736673 
L 119.24415 232.942516 
L 119.532543 232.762333 
L 119.604642 231.792114 
L 119.67674 232.297552 
L 119.748839 232.489748 
L 120.109331 231.832771 
L 120.253528 230.021696 
L 120.469823 230.355267 
L 120.61402 229.811944 
L 120.758216 228.37602 
L 121.04661 228.44255 
L 121.190807 229.962559 
L 121.262905 229.785148 
L 121.551299 230.773847 
L 121.623398 228.923963 
L 121.695496 229.938535 
L 121.767594 229.222421 
L 121.98389 229.533815 
L 122.055988 229.362871 
L 122.128086 228.699427 
L 122.272283 230.547462 
L 122.488579 231.872504 
L 122.560677 231.473328 
L 122.632775 231.609159 
L 122.704874 231.514909 
L 122.776972 232.359461 
L 122.993268 232.692108 
L 123.065366 232.617262 
L 123.137464 231.986158 
L 123.209563 232.39827 
L 123.281661 231.615627 
L 123.570055 231.416039 
L 123.714252 231.069532 
L 123.78635 231.552794 
L 124.002645 232.07856 
L 124.074744 233.571773 
L 124.146842 233.508939 
L 124.218941 233.62167 
L 124.291039 234.504107 
L 124.507334 234.294817 
L 124.579433 232.760485 
L 124.651531 232.936972 
L 124.795728 233.184609 
L 125.012023 233.01921 
L 125.084122 234.102159 
L 125.15622 233.642922 
L 125.228319 233.810169 
L 125.300417 234.303595 
L 125.516712 233.714071 
L 125.588811 233.894255 
L 125.733008 232.345601 
L 125.805106 232.365005 
L 126.021401 232.072092 
L 126.309795 232.70412 
L 126.52609 232.669931 
L 126.598189 231.369838 
L 126.670287 231.515833 
L 126.742385 231.470556 
L 127.102877 231.933489 
L 127.174976 232.115521 
L 127.535468 231.215527 
L 127.607566 231.351358 
L 127.679665 231.054748 
L 127.751763 231.45762 
L 127.823862 230.456909 
L 128.184354 230.871793 
L 128.256452 230.577031 
L 128.689043 232.000018 
L 128.761141 231.311625 
L 128.83324 231.506593 
L 129.121633 231.904844 
L 129.193732 231.679384 
L 129.26583 232.39827 
L 129.337929 231.911313 
L 129.626322 232.718904 
L 129.698421 231.368914 
L 129.770519 231.521377 
L 129.842617 231.580514 
L 130.058913 231.554642 
L 130.131011 231.068608 
L 130.20311 231.243248 
L 130.275208 231.209983 
L 130.347306 230.360811 
L 130.6357 230.029088 
L 130.707799 228.967392 
L 130.779897 229.031241 
L 131.068291 228.184749 
L 131.140389 227.09718 
L 131.212487 227.151697 
L 131.284586 227.446458 
L 131.356684 227.406726 
L 131.57298 227.790193 
L 131.645078 228.397273 
L 131.717176 228.353844 
L 131.789275 228.575608 
L 132.077669 227.433522 
L 132.149767 227.51576 
L 132.221865 227.916784 
L 132.293964 227.53424 
L 132.366062 226.529833 
L 132.582357 226.304372 
L 132.654456 226.041951 
L 132.870751 226.7405 
L 133.303342 224.991343 
L 133.37544 225.197399 
L 133.808031 224.649457 
L 133.880129 224.018352 
L 134.096424 223.941659 
L 134.168523 223.755931 
L 134.31272 224.348227 
L 134.384818 226.978905 
L 134.817409 228.098815 
L 134.889507 227.739372 
L 135.105802 227.349437 
L 135.177901 227.914011 
L 135.249999 227.64235 
L 135.322097 227.820686 
L 135.394196 228.560824 
L 135.68259 227.357753 
L 135.754688 226.455911 
L 135.826786 227.476951 
L 135.898885 227.382701 
L 136.11518 227.405802 
L 136.331475 229.621596 
L 136.403574 228.834333 
L 136.619869 229.030225 
L 136.764066 227.659907 
L 136.836164 227.711652 
L 136.908263 227.452003 
L 137.124558 227.612782 
L 137.196656 228.246658 
L 137.268755 227.647894 
L 137.340853 227.784649 
L 137.701345 226.514124 
L 137.773444 226.26926 
L 137.917641 227.050055 
L 138.133936 227.500052 
L 138.350231 226.548313 
L 138.42233 226.181478 
L 138.638625 226.500264 
L 138.927018 223.284682 
L 139.215412 222.462306 
L 139.431707 222.622161 
L 139.720101 221.040243 
L 139.7922 221.074441 
L 139.864298 221.535516 
L 139.936396 220.147642 
L 140.441085 216.142948 
L 140.729479 218.119423 
L 140.945774 215.466567 
L 141.16207 214.908461 
L 141.306266 212.591948 
L 141.378365 213.267405 
L 141.450463 212.704678 
L 141.666758 212.276858 
L 141.810955 209.71086 
L 141.883054 210.061063 
L 142.243546 206.496202 
L 142.315644 207.313967 
L 142.459841 213.686909 
L 142.676136 216.634526 
L 142.748235 214.002923 
L 142.892432 216.858138 
L 142.96453 216.490379 
L 143.180825 217.209265 
L 143.325022 214.005695 
L 143.469219 212.510634 
L 143.685514 213.499333 
L 143.90181 210.634878 
L 143.973908 211.004485 
L 144.190203 212.064334 
L 144.262302 211.821317 
L 144.406498 208.947622 
L 144.478597 208.983658 
L 144.694892 208.655632 
L 144.766991 210.431225 
L 144.839089 210.417734 
L 145.199581 213.200876 
L 145.27168 212.82018 
L 145.343778 212.448725 
L 145.487975 210.663523 
L 145.70427 210.29022 
L 145.848467 209.356038 
L 145.920565 210.289296 
L 145.992664 210.123896 
L 146.425254 211.713207 
L 146.497353 214.33095 
L 146.713648 215.047063 
L 146.785746 216.670572 
L 146.857845 214.682076 
L 146.929943 215.279916 
L 147.002042 216.063483 
L 147.218337 214.624787 
L 147.506731 219.574751 
L 147.795124 221.043939 
L 147.867223 224.345445 
L 147.939321 221.955021 
L 148.011419 222.702551 
L 148.371912 224.377795 
L 148.44401 222.896595 
L 148.516108 227.368841 
L 148.732404 229.260305 
L 148.804502 228.209743 
L 148.876601 228.680022 
L 148.948699 228.38064 
L 149.020797 227.295844 
L 149.237093 226.882808 
L 149.309191 227.166481 
L 149.381289 225.63908 
L 149.453388 225.858072 
L 149.525486 226.09924 
L 149.958077 228.57376 
L 150.030175 228.117295 
L 150.246471 230.090997 
L 150.318569 232.146937 
L 150.390667 231.345814 
L 150.462766 231.112037 
L 150.751159 232.809458 
L 150.967455 235.056669 
L 151.039553 234.996608 
L 151.255848 236.819695 
L 151.400045 234.365504 
L 151.472144 234.104007 
L 151.760537 236.242184 
L 151.832636 234.459754 
L 151.904734 235.121351 
L 151.976833 234.978128 
L 152.265226 232.482356 
L 152.337325 233.386045 
L 152.409423 232.701348 
L 152.55362 234.559548 
L 152.769915 234.338707 
L 152.914112 232.00741 
L 152.986211 232.985021 
L 153.058309 231.509365 
L 153.274604 230.979903 
L 153.418801 232.146937 
L 153.490899 231.695092 
L 153.562998 232.769725 
L 153.851392 233.750108 
L 153.92349 232.993337 
L 153.995588 233.500623 
L 154.067687 225.196475 
L 154.283982 225.346166 
L 154.356081 223.755931 
L 154.428179 224.54227 
L 154.500277 224.861057 
L 154.572376 224.766807 
L 154.860769 223.435297 
L 155.004966 220.237271 
L 155.077065 221.326688 
L 155.29336 220.0691 
L 155.437557 221.538289 
L 155.509655 221.167757 
L 155.581754 222.074219 
L 155.798049 220.989422 
L 155.870147 221.168681 
L 155.942246 221.787773 
L 156.014344 221.353485 
L 156.086443 221.439409 
L 156.302738 221.675043 
L 156.374836 221.575249 
L 156.519033 224.267837 
L 156.591132 224.715062 
L 156.951624 222.532532 
L 157.09582 220.909956 
L 157.384214 222.619389 
L 157.456313 222.164773 
L 157.528411 220.863756 
L 157.600509 222.64711 
L 157.888903 223.832625 
L 157.961002 224.661469 
L 158.321494 222.110256 
L 158.537789 223.275442 
L 158.609887 224.547815 
L 158.826183 224.660545 
L 158.898281 224.929434 
L 158.970379 224.125538 
L 159.114576 226.244311 
L 159.330872 226.396774 
L 159.40297 225.628915 
L 159.475068 226.339485 
L 159.547167 225.419163 
L 159.83556 224.780667 
L 159.907659 223.79936 
L 160.123954 225.714849 
L 160.412348 227.351285 
L 160.484446 225.548526 
L 160.556545 225.748114 
L 160.628643 230.564095 
L 160.844938 231.720965 
L 160.989135 229.834121 
L 161.061234 231.090785 
L 161.133332 229.579092 
L 161.349627 230.952182 
L 161.421726 230.398695 
L 161.493824 230.43658 
L 161.638021 231.807823 
L 161.854316 232.256895 
L 161.998513 230.100238 
L 162.070612 230.767379 
L 162.14271 229.299114 
L 162.431104 228.596861 
L 162.503202 228.835257 
L 162.647399 227.900151 
L 163.007891 230.224056 
L 163.079989 230.082681 
L 163.152088 229.70753 
L 163.368383 230.407936 
L 163.51258 231.741293 
L 163.584678 231.260804 
L 163.656777 232.230099 
L 164.017269 232.126609 
L 164.161466 233.989429 
L 164.521958 236.769798 
L 164.666155 234.598356 
L 164.88245 234.949483 
L 164.954548 234.111399 
L 165.026647 236.739306 
L 165.170844 233.53666 
L 165.459237 235.373607 
L 165.603434 234.419097 
L 165.675533 235.210056 
L 165.891828 239.833841 
L 166.036025 236.995259 
L 166.180221 239.287747 
L 166.396517 240.738455 
L 166.612812 244.640582 
L 166.68491 244.361529 
L 166.901206 239.831993 
L 167.045403 243.699008 
L 167.117501 242.419243 
L 167.189599 240.61556 
L 167.405895 239.989076 
L 167.62219 242.483925 
L 167.694288 243.68792 
L 167.910584 244.593457 
L 167.982682 240.965763 
L 168.05478 241.959082 
L 168.198977 241.833416 
L 168.415273 243.022627 
L 168.487371 241.13301 
L 168.631568 244.433602 
L 168.703666 244.440994 
L 168.99206 246.259461 
L 169.064158 248.150002 
L 169.136257 246.202172 
L 169.208355 246.39252 
L 169.496749 247.556782 
L 169.640946 251.055114 
L 169.713044 250.789921 
L 169.929339 251.251006 
L 170.073536 248.049284 
L 170.217733 247.968894 
L 170.434028 250.46097 
L 170.578225 249.21909 
L 170.650324 249.689415 
L 170.938717 247.123418 
L 171.082914 246.503402 
L 171.155013 247.298057 
L 171.227111 245.862134 
L 171.443406 246.332459 
L 171.515505 244.982469 
L 171.7318 246.37866 
L 171.948095 247.585427 
L 172.020194 247.501341 
L 172.092292 247.045801 
L 172.452784 247.556782 
L 172.741178 245.34838 
L 172.957473 244.726516 
L 173.029571 244.171181 
L 173.245867 245.925891 
L 173.462162 246.145807 
L 173.53426 245.995192 
L 173.678457 247.411712 
L 173.750556 247.348878 
L 174.038949 248.912317 
L 174.255245 245.036062 
L 174.47154 245.112755 
L 174.615737 242.821191 
L 174.687835 243.315541 
L 174.759934 243.758145 
L 175.120426 243.345109 
L 175.264622 240.731987 
L 175.480918 240.039897 
L 175.625115 241.955386 
L 175.697213 241.492453 
L 176.057705 243.376526 
L 176.129804 242.410927 
L 176.201902 243.378374 
L 176.274 243.026323 
L 176.490296 244.540788 
L 176.562394 243.118725 
L 176.634492 243.470776 
L 176.706591 243.882887 
L 176.778689 243.808042 
L 177.139181 245.570144 
L 177.21128 246.79724 
L 177.283378 246.526502 
L 177.499674 248.160166 
L 177.715969 245.144172 
L 177.788067 245.061934 
L 178.004362 245.498995 
L 178.076461 244.052907 
L 178.148559 244.259887 
L 178.220658 244.551876 
L 178.292756 244.531548 
L 178.509051 242.827567 
L 178.58115 242.945933 
L 178.653248 243.246239 
L 178.725347 242.394295 
L 178.797445 242.910821 
L 179.01374 243.373754 
L 179.302134 240.870589 
L 179.518429 241.012888 
L 179.590528 241.899021 
L 179.662626 241.589475 
L 179.734725 240.619257 
L 180.023118 240.100883 
L 180.095217 240.950979 
L 180.311512 238.795245 
L 180.527807 239.990924 
L 180.599906 239.790413 
L 180.816201 239.04935 
L 181.104595 239.583433 
L 181.248791 238.450587 
L 181.32089 238.661263 
L 181.681382 237.757573 
L 181.75348 238.39145 
L 181.825579 237.400902 
L 182.041874 237.340841 
L 182.258169 239.23323 
L 182.618661 238.181698 
L 182.834957 238.678819 
L 183.267547 237.117229 
L 183.339646 236.486125 
L 183.772236 234.356264 
L 183.844335 233.982961 
L 184.204827 235.065909 
L 184.637417 236.599779 
L 184.781614 236.779038 
L 184.853712 236.221856 
L 185.142106 237.553365 
L 185.286303 236.621031 
L 185.358401 235.738594 
L 185.574697 235.847629 
L 185.718893 236.323498 
L 185.790992 237.293716 
L 186.079386 237.190226 
L 186.151484 238.389602 
L 186.223582 237.848127 
L 186.367779 236.747622 
L 186.656173 235.796808 
L 186.80037 234.141892 
L 186.872468 235.283054 
L 187.088763 235.290446 
L 187.23296 235.519602 
L 187.377157 233.761196 
L 187.593452 233.938608 
L 187.737649 234.729567 
L 187.809748 233.86099 
L 187.881846 234.100311 
L 188.17024 233.11309 
L 188.314437 233.424854 
L 188.386535 232.802066 
L 188.60283 232.847343 
L 188.674929 233.094425 
L 188.819126 232.323425 
L 188.891224 232.534101 
L 189.107519 233.930292 
L 189.179618 233.894255 
L 189.251716 234.015301 
L 189.395913 232.049915 
L 189.684307 231.483492 
L 189.900602 232.095192 
L 190.116897 232.37979 
L 190.261094 233.179989 
L 190.405291 232.413978 
L 190.693685 232.661615 
L 190.90998 231.412343 
L 191.198373 230.913373 
L 191.34257 229.603116 
L 191.414669 229.627141 
L 191.703062 228.924887 
L 191.775161 228.980328 
L 191.919358 229.532891 
L 192.207751 228.97386 
L 192.27985 229.221497 
L 192.424047 230.262865 
L 192.640342 229.898802 
L 192.784539 227.217302 
L 192.928736 227.3365 
L 193.217129 226.425419 
L 193.289228 225.574398 
L 193.361326 226.074292 
L 193.433424 224.2318 
L 193.721818 224.059009 
L 193.793917 224.116298 
L 193.866015 223.840017 
L 193.938113 223.876978 
L 194.154409 223.828929 
L 194.298606 225.114237 
L 194.370704 224.120918 
L 194.442802 225.500477 
L 194.659098 225.697293 
L 194.947491 224.116298 
L 195.307983 222.31816 
L 195.380082 222.568568 
L 195.45218 222.180481 
L 195.740574 221.677815 
L 195.812672 221.755433 
L 195.956869 222.373231 
L 196.317361 220.915501 
L 196.461558 221.468063 
L 196.677853 221.168681 
L 196.749952 220.533881 
L 196.82205 220.751949 
L 196.966247 220.982954 
L 197.254641 220.794454 
L 197.687231 219.992407 
L 197.75933 220.231727 
L 197.831428 219.804831 
L 197.903527 220.157806 
L 197.975625 219.928649 
L 198.19192 219.719821 
L 198.264019 219.494361 
L 198.408216 217.890266 
L 198.696609 217.484622 
L 198.768708 217.805257 
L 198.840806 217.497559 
L 198.912904 217.751663 
L 199.201298 217.126103 
L 199.273397 217.381132 
L 199.417593 220.143022 
L 199.489692 219.411199 
L 199.705987 219.495285 
L 199.850184 220.790758 
L 199.922282 220.535729 
L 199.994381 221.445887 
L 200.282774 220.741785 
L 200.354873 221.408002 
L 200.426971 221.170529 
L 200.49907 224.217016 
L 200.715365 225.141958 
L 200.787463 224.918346 
L 200.859562 224.947914 
L 201.003759 226.07115 
L 201.220054 225.786922 
L 201.292152 225.962486 
L 201.364251 225.066189 
L 201.436349 226.363694 
L 201.508448 225.946778 
L 201.724743 225.745342 
L 201.796841 225.470908 
L 201.86894 225.65525 
L 201.941038 225.474604 
L 202.013137 225.777682 
L 202.30153 225.021836 
L 202.373629 225.307634 
L 202.445727 224.844424 
L 202.517825 225.071455 
L 202.734121 224.883233 
L 202.950416 226.39585 
L 203.022514 226.361662 
L 203.23881 225.817415 
L 203.527203 222.904911 
L 203.743499 223.064766 
L 203.815597 223.276366 
L 203.959794 221.340549 
L 204.031892 221.488392 
L 204.248188 223.000085 
L 204.320286 222.813433 
L 204.464483 222.702551 
L 204.536581 223.293922 
L 204.752877 223.524927 
L 204.824975 224.310342 
L 204.969172 223.027805 
L 205.04127 223.045362 
L 205.257565 223.067538 
L 205.473861 222.480787 
L 205.762254 222.276579 
L 205.906451 222.96682 
L 205.97855 222.601833 
L 206.050648 222.719183 
L 206.266943 222.117648 
L 206.483239 220.032139 
L 206.555337 224.204542 
L 206.771632 224.2087 
L 206.843731 223.752235 
L 206.915829 223.820613 
L 207.060026 224.680873 
L 207.420518 226.140821 
L 207.492617 225.881172 
L 207.564715 226.463766 
L 207.78101 226.010535 
L 207.853109 228.24943 
L 207.925207 227.936188 
L 208.069404 229.471906 
L 208.285699 226.837531 
L 208.429896 228.339984 
L 208.501994 227.832698 
L 208.574093 228.142244 
L 208.790388 228.101587 
L 209.078782 231.420659 
L 209.367175 230.956802 
L 209.439274 231.104645 
L 209.511372 229.719542 
L 209.583471 230.165843 
L 209.871864 230.467073 
L 210.016061 228.320579 
L 210.08816 228.956304 
L 210.448652 231.238628 
L 210.592849 229.90065 
L 210.809144 230.391303 
L 210.953341 228.720679 
L 211.097538 228.835257 
L 211.602226 231.362446 
L 211.818522 231.417887 
L 212.034817 234.429261 
L 212.106915 234.700922 
L 212.395309 234.745275 
L 212.611604 231.842011 
L 212.8279 231.07138 
L 212.972096 229.638598 
L 213.044195 229.390592 
L 213.116293 232.570599 
L 213.332589 231.963058 
L 213.404687 230.539146 
L 213.476785 230.917069 
L 213.620982 229.756503 
L 213.837278 229.857221 
L 213.909376 229.51903 
L 213.981474 230.284117 
L 214.053573 230.22498 
L 214.125671 230.237916 
L 214.341966 229.724162 
L 214.414065 229.777755 
L 214.558262 228.089575 
L 214.63036 228.817701 
L 214.846655 228.34368 
L 214.918754 228.495219 
L 214.990852 229.601268 
L 215.062951 229.57632 
L 215.135049 230.099314 
L 215.351344 230.169539 
L 215.423443 229.713998 
L 215.639738 232.347449 
L 215.856033 232.158025 
L 215.928132 233.32968 
L 216.00023 233.031222 
L 216.072329 233.367565 
L 216.144427 232.642211 
L 216.432821 233.45627 
L 216.649116 231.582362 
L 216.93751 232.127533 
L 217.153805 231.042736 
L 217.3701 230.476313 
L 217.514297 230.626928 
L 217.586395 230.588119 
L 217.946888 227.594301 
L 218.018986 227.359601 
L 218.091084 227.592453 
L 218.163183 226.316385 
L 218.379478 226.028091 
L 218.595773 226.454987 
L 218.667872 226.470696 
L 218.884167 226.772849 
L 218.956265 225.305509 
L 219.028364 225.664028 
L 219.100462 226.065052 
L 219.172561 225.479225 
L 219.460954 225.01352 
L 219.533053 224.837032 
L 219.605151 225.056024 
L 219.67725 219.463869 
L 219.893545 217.961416 
L 219.965643 218.874345 
L 220.037742 218.860485 
L 220.181939 218.440057 
L 220.470332 217.879178 
L 220.542431 218.075994 
L 220.614529 217.881026 
L 220.686627 218.331947 
L 220.975021 218.156383 
L 221.191316 217.280414 
L 221.407612 217.124255 
L 221.551809 217.483698 
L 222.056497 221.11786 
L 222.128596 219.915713 
L 222.200694 220.445175 
L 222.41699 220.409139 
L 222.489088 221.167757 
L 222.561186 220.062632 
L 222.921679 221.250919 
L 222.993777 223.690326 
L 223.065875 222.891975 
L 223.210072 222.092699 
L 223.426367 221.597426 
L 223.642663 220.383266 
L 224.003155 220.068176 
L 224.075253 220.494148 
L 224.147352 220.363862 
L 224.21945 220.447947 
L 224.435745 220.054316 
L 224.579942 219.090565 
L 224.652041 219.206992 
L 224.940434 219.377935 
L 225.012533 219.697645 
L 225.084631 219.505449 
L 225.228828 220.155034 
L 225.445123 219.195903 
L 225.517222 219.401959 
L 225.733517 218.078766 
L 225.949812 218.284822 
L 226.238206 217.363576 
L 226.5266 215.935968 
L 226.742895 218.504738 
L 226.95919 218.574039 
L 227.031289 217.758132 
L 227.103387 218.073222 
L 227.175485 218.046425 
L 227.247584 219.506373 
L 227.463879 219.564586 
L 227.608076 218.48903 
L 227.680174 218.659973 
L 227.752273 218.58328 
L 227.968568 218.276968 
L 228.040666 217.899506 
L 228.112765 218.073222 
L 228.184863 218.078766 
L 228.256962 217.334007 
L 228.473257 216.996741 
L 228.617454 217.35988 
L 228.689552 217.263782 
L 228.761651 216.818405 
L 229.050044 218.654429 
L 229.122143 218.551863 
L 229.194241 218.782867 
L 229.26634 218.670137 
L 229.482635 218.359667 
L 229.626832 219.524854 
L 229.69893 218.71449 
L 229.771028 219.540562 
L 229.987324 220.368482 
L 230.059422 220.308421 
L 230.131521 220.358318 
L 230.275717 221.749889 
L 230.564111 222.410561 
L 230.63621 223.561888 
L 230.708308 223.168256 
L 230.780406 223.195976 
L 231.212997 220.809238 
L 231.285095 221.469911 
L 231.501391 221.874631 
L 231.789784 220.355546 
L 232.00608 220.736241 
L 232.078178 222.45399 
L 232.150276 221.983665 
L 232.222375 221.445887 
L 232.294473 221.615906 
L 232.510768 221.688903 
L 232.582867 222.313539 
L 232.727064 221.583565 
L 232.799162 226.001295 
L 233.015457 226.357965 
L 233.087556 226.848619 
L 233.159654 226.460531 
L 233.231753 226.518745 
L 233.520146 226.523365 
L 233.80854 224.763111 
L 234.241131 225.67142 
L 234.529524 225.35633 
L 234.601623 224.896169 
L 234.817918 226.107557 
L 235.034213 227.135988 
L 235.106312 226.023471 
L 235.17841 226.083532 
L 235.250508 225.950474 
L 235.322607 226.617614 
L 235.611001 227.150773 
L 235.683099 227.020486 
L 235.755197 227.162785 
L 236.11569 226.15653 
L 236.187788 226.472544 
L 236.259886 226.245235 
L 236.331985 226.705396 
L 236.692477 227.066687 
L 236.764575 227.292148 
L 236.836674 227.95975 
L 237.052969 228.400969 
L 237.125067 228.064626 
L 237.341363 230.222208 
L 237.557658 230.262865 
L 237.629756 229.484842 
L 237.846052 231.159162 
L 238.062347 230.42734 
L 238.350741 226.895005 
L 238.711233 225.570702 
L 238.783331 224.532106 
L 238.855429 225.882096 
L 239.071725 226.317309 
L 239.215922 225.302737 
L 239.28802 226.163922 
L 239.360118 219.817767 
L 239.576414 220.065404 
L 239.648512 219.362227 
L 239.720611 220.027519 
L 239.864807 217.913367 
L 240.081103 217.844065 
L 240.153201 217.516963 
L 240.225299 218.93071 
L 240.297398 218.586976 
L 240.369496 219.256889 
L 240.585792 218.972291 
L 240.65789 220.300105 
L 240.729988 219.489741 
L 240.802087 221.675043 
L 240.874185 221.534592 
L 241.090481 224.585699 
L 241.162579 222.054814 
L 241.234677 224.309418 
L 241.306776 223.097107 
L 241.378874 222.945568 
L 241.595169 223.549875 
L 241.883563 229.677037 
L 242.099858 229.007125 
L 242.244055 226.685992 
L 242.316154 226.986298 
L 242.604547 225.226968 
L 242.748744 225.053252 
L 242.892941 226.542769 
L 243.181335 226.788558 
L 243.325532 225.607663 
L 243.39763 226.541845 
L 243.758122 225.874704 
L 243.902319 224.524714 
L 244.190713 224.529796 
L 244.334909 226.929008 
L 244.407008 226.48086 
L 244.623303 225.891336 
L 244.695402 225.202943 
L 244.911697 227.448307 
L 245.127992 229.251989 
L 245.848976 223.387248 
L 245.921075 220.366634 
L 246.13737 221.223198 
L 246.209468 220.474744 
L 246.281567 221.381205 
L 246.353665 221.106772 
L 246.425764 220.476592 
L 246.642059 219.928649 
L 246.714157 221.153897 
L 246.786256 220.862831 
L 246.930453 219.584915 
L 247.146748 220.277928 
L 247.218846 221.570629 
L 247.290945 221.00051 
L 247.363043 219.828856 
L 247.435142 219.954522 
L 247.723535 218.457613 
L 247.867732 220.052468 
L 247.93983 218.826296 
L 248.228224 218.067678 
L 248.949208 223.016717 
L 249.165504 220.689116 
L 249.237602 221.17515 
L 249.453897 217.716551 
L 249.670193 217.227745 
L 249.814389 217.436573 
L 249.886488 218.114802 
L 249.958586 217.064194 
L 250.24698 217.229593 
L 250.319078 217.928151 
L 250.391177 217.79232 
L 250.463275 217.199101 
L 250.67957 217.58072 
L 250.751669 216.791609 
L 250.823767 217.212037 
L 250.967964 216.535656 
L 251.472653 215.356609 
L 251.833145 213.288657 
L 252.193637 217.522507 
L 252.265736 217.459674 
L 252.409933 216.859062 
L 252.482031 217.288731 
L 252.770425 216.957008 
L 252.914622 215.941513 
L 252.98672 220.8924 
L 253.203015 220.935829 
L 253.41931 222.545468 
L 253.491409 221.447735 
L 253.707704 221.659335 
L 253.923999 220.973714 
L 253.996098 219.936966 
L 254.212393 218.757919 
L 254.284492 218.972291 
L 254.428688 218.538927 
L 254.500787 219.051757 
L 254.717082 218.470549 
L 255.005476 219.169107 
L 255.293869 218.304226 
L 255.438066 219.033276 
L 255.510165 218.683073 
L 255.72646 218.737591 
L 255.798558 217.898582 
L 255.870657 217.911519 
L 255.942755 217.528051 
L 256.014854 217.634313 
L 256.231149 218.281126 
L 256.303247 219.139538 
L 256.375346 218.969519 
L 256.447444 218.938102 
L 256.519543 219.574751 
L 256.735838 219.121982 
L 256.807936 217.954947 
L 256.880035 218.120347 
L 257.240527 216.458039 
L 257.312625 216.503315 
L 257.456822 215.342749 
L 257.52892 215.662459 
L 257.745216 215.039671 
L 257.817314 215.253119 
L 257.889413 214.445528 
L 258.033609 215.787202 
L 258.249905 215.262359 
L 258.4662 216.611425 
L 258.754594 216.74818 
L 258.826692 217.115939 
L 258.970889 214.884436 
L 259.042987 217.324767 
L 259.259283 219.036972 
L 259.331381 218.713566 
L 259.403479 218.909458 
L 259.547676 219.961914 
L 259.763971 219.819615 
L 259.908168 218.699706 
L 259.980267 218.168396 
L 260.052365 218.213672 
L 260.340759 219.188511 
L 260.484956 218.579583 
L 260.557054 219.877828 
L 260.989645 218.335643 
L 261.061743 219.11459 
L 261.278038 219.228244 
L 261.422235 216.924668 
L 261.494334 217.46799 
L 261.566432 219.56089 
L 261.782727 218.294062 
L 261.854826 219.52393 
L 261.926924 218.72373 
L 262.071121 220.380494 
L 262.359515 220.120845 
L 262.57581 222.279351 
L 262.792105 221.576173 
L 262.864204 222.33202 
L 262.936302 221.393218 
L 263.0084 221.609438 
L 263.080499 221.404306 
L 263.513089 223.381704 
L 263.585188 222.87719 
L 263.801483 222.291363 
L 263.873581 221.304512 
L 263.94568 221.675967 
L 264.017778 222.812509 
L 264.089877 222.23315 
L 264.306172 223.229241 
L 264.450369 222.434586 
L 264.522467 222.895671 
L 264.594566 221.439419 
L 264.810861 221.402458 
L 265.027156 219.97485 
L 265.099255 220.893324 
L 265.31555 220.890552 
L 265.531845 222.325552 
L 265.603944 221.767445 
L 265.820239 221.915288 
L 265.964436 221.375661 
L 266.108632 218.598064 
L 266.324928 218.164699 
L 266.397026 218.89837 
L 266.469125 218.859561 
L 266.541223 218.363363 
L 266.613321 216.367485 
L 266.901715 216.551364 
L 266.973814 216.578161 
L 267.045912 216.9413 
L 267.11801 215.778885 
L 267.334306 215.641207 
L 267.406404 215.851883 
L 267.550601 215.684636 
L 267.622699 215.716976 
L 268.127388 212.469978 
L 268.343684 212.61782 
L 268.415782 213.175003 
L 268.48788 212.466282 
L 268.559979 212.501394 
L 268.632077 212.332299 
L 268.848372 213.2018 
L 268.992569 211.46557 
L 269.064668 212.050474 
L 269.136766 211.735383 
L 269.497258 212.139179 
L 269.641455 209.789402 
L 269.85775 210.286524 
L 270.001947 211.200377 
L 270.146144 209.463224 
L 270.362439 209.435503 
L 270.650833 207.216936 
L 271.011325 205.417874 
L 271.083424 205.136972 
L 271.155522 205.321776 
L 271.371817 204.649091 
L 271.443916 205.091695 
L 271.588112 204.069732 
L 271.660211 204.106692 
L 271.876506 205.013154 
L 271.948605 206.283678 
L 272.020703 206.240249 
L 272.092801 205.600829 
L 272.1649 206.222693 
L 272.381195 206.571048 
L 272.453294 206.227313 
L 272.525392 205.230298 
L 272.669589 212.040309 
L 272.885884 212.328603 
L 272.957982 212.173368 
L 273.174278 212.653857 
L 273.53477 212.17821 
L 273.678967 211.474071 
L 273.96736 212.046777 
L 274.111557 214.766162 
L 274.183656 213.773767 
L 274.399951 213.508574 
L 274.688345 215.238335 
L 274.976738 213.132498 
L 275.048837 213.511346 
L 275.193034 213.317302 
L 275.409329 213.947482 
L 275.697722 210.508288 
L 275.914018 210.796581 
L 276.058215 211.483127 
L 276.130313 211.177277 
L 276.202411 211.816697 
L 276.418707 211.704891 
L 276.635002 210.108188 
L 276.7071 210.17627 
L 276.995494 208.410767 
L 277.067592 208.499473 
L 277.139691 208.291569 
L 277.211789 208.913433 
L 277.428085 209.479856 
L 277.572281 209.538069 
L 277.716478 210.356749 
L 277.932773 209.675748 
L 278.221167 206.849177 
L 278.509561 207.280694 
L 278.653758 206.524847 
L 278.725856 206.662526 
L 279.230545 209.940941 
L 279.518939 210.09248 
L 279.663136 205.383685 
L 279.735234 205.398469 
L 279.951529 205.67013 
L 280.167825 205.211818 
L 280.239923 203.372098 
L 280.456218 204.90412 
L 280.744612 202.469333 
L 281.033006 202.900849 
L 281.177202 202.242948 
L 281.537695 200.484542 
L 281.609793 201.814204 
L 281.681891 201.530531 
L 281.75399 201.144291 
L 282.042383 202.0295 
L 282.258679 200.545528 
L 282.474974 199.130487 
L 282.547072 197.550416 
L 282.619171 198.217927 
L 282.691269 198.105566 
L 282.763368 198.20499 
L 282.979663 197.900065 
L 283.268057 199.795964 
L 283.484352 200.397685 
L 283.628549 199.758449 
L 283.772746 200.164832 
L 283.989041 200.226741 
L 284.061139 199.969865 
L 284.205336 201.654534 
L 284.49373 201.007537 
L 284.565828 199.912575 
L 284.998419 203.441399 
L 285.070517 203.182674 
L 285.214714 202.005476 
L 285.286812 202.036892 
L 285.503108 202.787195 
L 285.575206 201.730118 
L 285.719403 204.267102 
L 285.791501 201.129507 
L 286.007797 201.106961 
L 286.151993 199.874321 
L 286.29619 200.986284 
L 286.584584 198.847183 
L 286.656682 199.229726 
L 287.017174 195.430165 
L 287.089273 195.829341 
L 287.161371 194.313951 
L 287.23347 194.512615 
L 287.305568 193.7041 
L 287.521863 193.953584 
L 287.593962 193.069299 
L 287.66606 190.409052 
L 287.738159 191.519722 
L 287.810257 191.029068 
L 288.026552 191.089129 
L 288.098651 191.233276 
L 288.314946 194.342596 
L 288.60334 193.608002 
L 288.675438 194.805529 
L 288.747537 194.579145 
L 288.819635 194.536825 
L 289.03593 194.868362 
L 289.108029 195.656549 
L 289.180127 195.601108 
L 289.252226 195.144643 
L 289.324324 193.750301 
L 289.540619 192.781006 
L 289.684816 194.466414 
L 289.756914 194.002557 
L 289.829013 194.183665 
L 290.045308 193.147841 
L 290.189505 191.814483 
L 290.333702 193.639418 
L 290.622096 195.000497 
L 290.838391 193.691163 
L 291.054686 192.997226 
L 291.126784 193.511904 
L 291.631473 191.393131 
L 291.703572 191.32383 
L 291.847769 189.752075 
L 292.064064 189.595916 
L 292.352458 192.191667 
L 292.568753 190.888617 
L 292.857147 193.231003 
L 293.073442 193.5156 
L 293.361836 191.270237 
L 293.578131 191.415308 
L 293.722328 192.741273 
L 293.794426 192.555546 
L 294.154918 193.60985 
L 294.371213 195.859094 
L 294.803804 194.306559 
L 294.875902 194.629966 
L 295.092198 194.98294 
L 295.236394 196.631388 
L 295.308493 195.995664 
L 295.380591 196.783851 
L 295.668985 195.538275 
L 295.88528 193.764161 
L 296.245772 192.229367 
L 296.317871 192.518215 
L 296.389969 192.887453 
L 296.678363 193.160777 
L 296.750461 191.570543 
L 296.82256 192.026083 
L 296.894658 191.589947 
L 297.25515 193.981305 
L 297.327249 193.894447 
L 297.399347 194.058923 
L 297.615642 194.103275 
L 297.759839 192.987062 
L 297.904036 194.432226 
L 298.120331 195.043001 
L 298.19243 196.158291 
L 298.264528 195.955931 
L 298.408725 194.46549 
L 298.62502 194.084795 
L 298.697119 193.539624 
L 298.769217 192.05944 
L 298.841315 192.912771 
L 298.913414 181.582834 
L 299.129709 182.332212 
L 299.201808 181.990326 
L 299.273906 179.734798 
L 299.346004 180.276273 
L 299.418103 181.232631 
L 299.634398 181.251111 
L 299.706497 179.288498 
L 299.778595 179.826276 
L 299.850693 179.811492 
L 299.922792 180.138594 
L 300.139087 180.224528 
L 300.355382 181.902544 
L 300.427481 181.155938 
L 300.643776 181.658603 
L 300.715874 181.548645 
L 300.860071 179.381823 
L 300.93217 179.536134 
L 301.148465 179.721862 
L 301.292662 180.575654 
L 301.36476 179.489009 
L 301.436859 179.690445 
L 301.653154 178.393124 
L 301.797351 176.805662 
L 302.229941 177.715819 
L 302.73463 174.814403 
L 302.950925 177.020034 
L 303.167221 175.893656 
L 303.239319 176.18195 
L 303.455614 173.339671 
L 303.67191 172.001693 
L 303.744008 172.302923 
L 303.960303 171.696767 
L 304.176599 172.522839 
L 304.248697 171.483319 
L 304.464992 172.934951 
L 304.681288 171.796561 
L 304.825484 169.587235 
L 304.969681 170.608274 
L 305.185976 171.273567 
L 305.258075 168.832312 
L 305.330173 168.904385 
L 305.402272 168.202132 
L 305.47437 168.727898 
L 305.834862 167.388996 
L 305.906961 167.843613 
L 305.979059 171.195026 
L 306.195354 173.283306 
L 306.267453 171.270795 
L 306.339551 172.75754 
L 306.483748 165.915188 
L 306.700043 170.307968 
L 306.772142 169.870908 
L 306.84424 169.405203 
L 306.988437 166.241366 
L 307.204732 166.658098 
L 307.421028 164.166022 
L 307.78152 163.15145 
L 307.853618 163.940562 
L 307.925716 163.77701 
L 307.997815 163.806579 
L 308.358307 162.293038 
L 308.430405 162.381744 
L 308.718799 163.908221 
L 308.862996 162.469525 
L 308.935094 162.344783 
L 309.007193 162.790159 
L 309.223488 163.087693 
L 309.295586 164.157706 
L 309.367685 163.482249 
L 309.511882 166.67011 
L 309.728177 164.886756 
L 309.800275 163.116338 
L 310.016571 165.723916 
L 310.377063 170.442875 
L 310.449161 172.077463 
L 310.52126 171.535064 
L 310.737555 172.05621 
L 310.881752 170.153657 
L 310.95385 169.749707 
L 311.025949 174.585826 
L 311.242244 175.436983 
L 311.386441 170.571387 
L 311.530638 175.965732 
L 311.819031 173.950222 
L 311.89113 171.149879 
L 311.963228 174.937711 
L 312.251622 175.669117 
L 312.32372 174.539768 
L 312.540015 178.666589 
L 312.756311 178.688697 
L 312.828409 176.229185 
L 312.900507 176.496323 
L 312.972606 175.823873 
L 313.044704 176.682399 
L 313.261 176.413418 
L 313.405196 179.606178 
L 313.477295 179.206392 
L 313.765689 175.842296 
L 313.837787 175.269331 
L 314.054082 177.708577 
L 314.414574 173.765989 
L 314.558771 171.168302 
L 314.847165 169.128842 
L 314.919263 169.943152 
L 314.991362 169.922887 
L 315.06346 169.722073 
L 315.279755 171.068816 
L 315.423952 173.018003 
L 315.568149 170.757462 
L 315.784444 169.891567 
L 315.928641 170.48664 
L 316.00074 171.960505 
L 316.072838 171.803906 
L 316.361232 173.597416 
L 316.577527 170.667188 
L 316.793822 169.235697 
L 316.865921 169.558105 
L 316.938019 167.091224 
L 317.010117 167.304934 
L 317.082216 167.13544 
L 317.298511 167.323358 
L 317.37061 166.066888 
L 317.442708 166.197693 
L 317.514806 165.773957 
L 317.8032 166.201378 
L 317.875299 168.478499 
L 317.947397 167.564703 
L 318.019495 168.176357 
L 318.091594 166.958576 
L 318.307889 165.556562 
L 318.379987 165.777642 
L 318.452086 166.227171 
L 318.524184 168.032655 
L 318.596283 163.557633 
L 318.812578 164.786468 
L 318.956775 163.542895 
L 319.100972 164.852792 
L 319.317267 164.679613 
L 319.605661 169.362818 
L 319.821956 167.765517 
L 319.894054 169.447565 
L 319.966153 169.198851 
L 320.038251 169.692595 
L 320.11035 168.563246 
L 320.326645 168.690367 
L 320.398743 169.635483 
L 320.54294 167.327042 
L 320.615039 167.500221 
L 320.903432 165.031498 
L 320.975531 165.344694 
L 321.047629 165.895551 
L 321.119727 165.873443 
L 321.336023 166.236382 
L 321.552318 168.124772 
L 321.624416 167.748936 
L 322.057007 165.762903 
L 322.129105 164.908062 
L 322.345401 164.198764 
L 322.417499 165.978456 
L 322.489597 165.711318 
L 322.561696 166.136897 
L 322.633794 167.280984 
L 322.85009 167.881584 
L 323.138483 163.504206 
L 323.426877 166.124 
L 323.498975 164.790153 
L 323.571074 167.216502 
L 323.643172 166.728285 
L 323.859467 166.744866 
L 323.931566 166.634326 
L 324.003664 168.251892 
L 324.075763 168.021601 
L 324.147861 167.032269 
L 324.364156 166.750393 
L 324.436255 169.270701 
L 324.508353 167.494694 
L 324.65255 172.754549 
L 324.868845 174.677943 
L 324.940944 173.952064 
L 325.157239 178.69054 
L 325.517731 175.057463 
L 325.58983 173.038268 
L 325.661928 173.913375 
L 325.878223 173.732827 
L 325.950322 172.063675 
L 326.02242 172.153949 
L 326.094518 171.818645 
L 326.166617 170.418474 
L 326.382912 171.173829 
L 326.455011 171.096451 
L 326.599207 173.399365 
L 326.671306 173.375415 
L 326.9597 171.630727 
L 327.464388 174.722159 
L 327.536487 174.226572 
L 327.608585 174.860333 
L 327.680684 174.467917 
L 327.896979 174.174986 
L 327.969077 173.852578 
L 328.041176 174.128928 
L 328.185373 173.880213 
L 328.545865 176.111276 
L 328.617963 175.077729 
L 328.690062 177.749108 
L 328.906357 177.260891 
L 328.978455 176.269717 
L 329.194751 178.95952 
L 329.411046 180.004121 
L 329.483144 183.261363 
L 329.555243 181.73407 
L 329.69944 179.230342 
L 329.987833 175.779657 
L 330.059932 176.118646 
L 330.204128 175.273016 
L 330.492522 176.42263 
L 330.564621 177.273787 
L 330.708817 177.478286 
L 330.925113 179.337198 
L 331.069309 181.973573 
L 331.141408 181.649323 
L 331.213506 182.789726 
L 331.429802 183.464019 
L 331.718195 180.996217 
L 332.006589 181.091097 
L 332.222884 175.193795 
L 332.439179 176.157334 
L 332.583376 180.632356 
L 332.655475 180.48497 
L 332.727573 176.004421 
L 332.943868 176.990068 
L 333.015967 176.787412 
L 333.088065 178.11389 
L 333.160164 177.4267 
L 333.232262 176.681478 
L 333.448557 177.528029 
L 333.664853 174.445809 
L 333.736951 173.497009 
L 334.097443 175.064832 
L 334.169542 174.364746 
L 334.457935 176.474215 
L 334.602132 174.202621 
L 334.746329 171.383855 
L 335.178919 167.919352 
L 335.251018 169.491781 
L 335.467313 169.270701 
L 335.61151 172.662433 
L 335.683608 171.652835 
L 335.755707 173.15802 
L 335.972002 171.566246 
L 336.044101 172.308705 
L 336.116199 170.733512 
L 336.188297 171.192253 
L 336.260396 170.956434 
L 336.476691 170.879056 
L 336.548789 168.63694 
L 336.765085 172.319759 
L 336.98138 171.659283 
L 337.197675 175.311705 
L 337.558167 174.657677 
L 337.630266 173.924429 
L 337.702364 174.075501 
L 337.774463 173.979699 
L 337.990758 173.961276 
L 338.062856 175.593581 
L 338.134955 175.361448 
L 338.207053 174.904549 
L 338.279152 176.890582 
L 338.711742 172.33634 
L 338.783841 169.351764 
L 339.144333 171.612304 
L 339.216431 173.937326 
L 339.288529 173.497009 
L 339.504825 173.187497 
L 339.649022 176.459477 
L 339.793218 173.904164 
L 340.009514 174.488183 
L 340.081612 175.787026 
L 340.153711 175.647009 
L 340.225809 173.858105 
L 340.297907 174.357377 
L 340.514203 174.324215 
L 340.730498 172.456092 
L 340.802596 172.877985 
L 341.09099 174.228414 
L 341.163088 172.927728 
L 341.235187 172.940625 
L 341.307285 174.57293 
L 341.52358 173.856263 
L 341.667777 172.736126 
L 341.811974 173.797309 
L 342.100368 175.155106 
L 342.172466 173.231713 
L 342.244565 173.70335 
L 342.532958 175.000351 
L 342.677155 174.337112 
L 342.821352 172.325286 
L 343.037647 171.927343 
L 343.109746 171.243838 
L 343.542336 175.322759 
L 343.614435 175.545681 
L 343.758632 174.200779 
L 344.047025 174.51766 
L 344.119124 173.705192 
L 344.191222 175.239854 
L 344.26332 174.696366 
L 344.335419 172.585055 
L 344.623813 167.413632 
L 344.695911 167.454163 
L 344.768009 164.171129 
L 344.840108 146.145764 
L 345.056403 147.394864 
L 345.128502 146.932439 
L 345.2006 146.978497 
L 345.344797 154.408618 
L 345.705289 153.181625 
L 345.777387 152.604976 
L 345.849486 153.905661 
L 346.065781 152.575499 
L 346.137879 153.20926 
L 346.209978 150.996621 
L 346.282076 151.575113 
L 346.354175 152.636295 
L 346.57047 152.866587 
L 346.714667 147.647263 
L 346.786765 148.561059 
L 347.075159 147.160888 
L 347.147257 148.152062 
L 347.219356 147.173784 
L 347.651946 162.201678 
L 347.796143 151.978583 
L 347.868242 153.502191 
L 348.084537 155.689038 
L 348.156635 159.053134 
L 348.228734 156.225156 
L 348.300832 157.673228 
L 348.37293 159.163674 
L 348.877619 154.310974 
L 349.093915 154.832354 
L 349.31021 151.295079 
L 349.382308 153.275584 
L 349.598604 152.159132 
L 349.670702 154.697864 
L 349.7428 154.681283 
L 349.814899 154.382825 
L 349.886997 157.102106 
L 350.175391 160.333554 
L 350.391686 153.99962 
L 350.607981 151.293236 
L 350.68008 151.300605 
L 350.824277 152.155447 
L 350.896375 151.374299 
L 351.11267 150.418129 
L 351.401064 146.937966 
L 351.617359 146.084967 
L 351.761556 151.271128 
L 351.833655 149.550391 
L 351.905753 142.514529 
L 352.338344 137.812901 
L 352.410442 139.18728 
L 352.915131 134.726996 
L 353.131426 135.985308 
L 353.275623 134.054546 
L 353.41982 138.693535 
L 353.636115 136.786722 
L 353.708214 137.604717 
L 353.924509 131.889807 
L 354.140804 131.945077 
L 354.285001 133.315771 
L 354.429198 132.816499 
L 354.645493 134.496705 
L 354.717591 130.638864 
L 354.78969 131.733209 
L 354.861788 133.511058 
L 354.933887 131.482652 
L 355.150182 132.628581 
L 355.22228 132.23248 
L 355.438576 136.786722 
L 355.654871 134.553817 
L 355.726969 135.005188 
L 355.799068 131.965342 
L 355.871166 133.210758 
L 355.943265 135.602104 
L 356.15956 134.874383 
L 356.303757 133.453946 
L 356.375855 133.945848 
L 356.664249 130.924425 
L 356.736347 128.765213 
L 356.808446 129.439507 
L 356.880544 131.703731 
L 357.168938 135.12494 
L 357.241036 134.739893 
L 357.313135 135.145206 
L 357.457331 140.38111 
L 357.673627 139.983167 
L 357.745725 137.722627 
L 357.817824 142.470313 
L 357.889922 140.292678 
L 357.96202 144.14315 
L 358.394611 141.162258 
L 358.466709 137.700519 
L 358.683005 139.881838 
L 358.755103 139.850519 
L 358.827201 142.836937 
L 358.971398 134.773055 
L 359.187694 133.037579 
L 359.259792 131.169455 
L 359.476087 145.383039 
L 359.692382 145.309345 
L 359.764481 145.887837 
L 359.836579 144.813758 
L 359.908678 144.904032 
L 359.980776 144.806389 
L 360.26917 142.825883 
L 360.341268 140.185823 
L 360.413367 142.849833 
L 360.485465 142.002361 
L 360.70176 140.723784 
L 360.773859 142.890365 
L 360.845957 142.225283 
L 360.918056 140.710887 
L 360.990154 141.49572 
L 361.206449 142.903261 
L 361.278548 138.306645 
L 361.350646 138.802232 
L 361.494843 140.508231 
L 361.711138 143.717571 
L 361.783237 143.583081 
L 361.999532 137.809216 
L 362.287926 136.759087 
L 362.432122 135.301804 
L 362.504221 135.867399 
L 362.720516 134.623826 
L 362.936811 135.972412 
L 363.225205 136.259816 
L 363.369402 133.485265 
L 363.4415 134.487493 
L 363.513599 133.240235 
L 363.729894 134.078496 
L 363.801992 135.285223 
L 363.874091 133.535008 
L 364.018288 135.119413 
L 364.234583 135.474983 
L 364.522977 131.337107 
L 364.739272 129.922197 
L 364.883469 132.273012 
L 364.955567 131.337107 
L 365.027666 139.117271 
L 365.243961 138.299276 
L 365.460256 145.143536 
L 365.74865 143.420956 
L 365.820748 144.520828 
L 365.892847 143.981025 
L 365.964945 143.365686 
L 366.037044 141.436766 
L 366.253339 140.709045 
L 366.325437 138.820656 
L 366.541732 141.501247 
L 366.758028 140.493492 
L 366.974323 143.255146 
L 367.046421 142.076055 
L 367.262717 142.897734 
L 367.406914 139.056474 
L 367.479012 139.272027 
L 367.55111 137.30626 
L 367.911602 137.147819 
L 368.272095 140.537708 
L 368.344193 140.347948 
L 368.416291 138.166628 
L 368.48839 138.242164 
L 368.560488 139.961059 
L 368.776783 140.202404 
L 368.848882 139.950005 
L 368.92098 140.145292 
L 369.065177 145.292764 
L 369.281472 144.946406 
L 369.497768 143.336209 
L 369.569866 148.802405 
L 369.786161 149.550391 
L 370.074555 144.187366 
L 370.362949 145.174855 
L 370.867638 140.086337 
L 370.939736 140.644563 
L 371.300228 136.274554 
L 371.372327 136.235865 
L 371.444425 135.55973 
L 371.516523 136.051632 
L 371.588622 135.154417 
L 371.877016 135.454717 
L 372.021212 133.945848 
L 372.093311 129.247904 
L 372.309606 127.479267 
L 372.381705 127.630338 
L 372.525901 128.159087 
L 372.598 126.37571 
L 372.814295 126.688907 
L 372.958492 126.088307 
L 373.03059 126.141734 
L 373.102689 126.353602 
L 373.318984 126.554416 
L 373.391082 127.433208 
L 373.463181 126.653902 
L 373.607378 127.716927 
L 373.895771 128.28068 
L 374.039968 129.255274 
L 374.112067 128.901546 
L 374.328362 128.42254 
L 374.472559 129.522412 
L 374.544657 129.23685 
L 374.616756 128.229095 
L 374.977248 126.180423 
L 375.049346 127.129224 
L 375.121445 129.774811 
L 375.33774 127.869841 
L 375.409838 129.730595 
L 375.481937 129.410029 
L 375.554035 127.425839 
L 375.626133 128.026439 
L 375.842429 128.50176 
L 375.986626 126.725753 
L 376.058724 124.713928 
L 376.130822 124.896319 
L 376.347118 127.164228 
L 376.419216 125.675625 
L 376.491315 125.799061 
L 376.563413 127.16607 
L 376.635511 126.904459 
L 376.851807 127.582437 
L 376.923905 127.138435 
L 376.996003 127.425839 
L 377.068102 127.085008 
L 377.1402 127.52164 
L 377.356496 125.041863 
L 377.572791 126.900775 
L 377.861184 126.392291 
L 378.005381 122.661571 
L 378.07748 123.667484 
L 378.149578 123.219797 
L 378.365873 121.067955 
L 378.582169 124.456001 
L 378.654267 124.048846 
L 378.942661 126.642848 
L 379.086858 130.933637 
L 379.158956 131.134451 
L 379.44735 125.445333 
L 379.519448 126.622583 
L 379.663645 132.857031 
L 379.87994 136.27087 
L 380.096236 130.202232 
L 380.168334 132.079567 
L 380.456728 130.415942 
L 380.528826 131.521341 
L 380.673023 131.294734 
L 380.961417 129.597947 
L 381.105613 134.22404 
L 381.177712 134.20009 
L 381.610302 128.542291 
L 381.682401 125.911443 
L 381.898696 126.197004 
L 382.042893 124.356516 
L 382.114991 124.769198 
L 382.18709 125.839592 
L 382.403385 125.349532 
L 382.475483 124.852103 
L 382.691779 126.215427 
L 382.980172 125.823011 
L 383.196468 129.043405 
L 383.917452 122.64499 
L 383.98955 122.860543 
L 384.061649 122.151245 
L 384.133747 122.212042 
L 384.205846 121.952274 
L 384.494239 122.593405 
L 384.566338 122.306001 
L 384.638436 123.162685 
L 384.92683 119.466969 
L 385.071027 116.884021 
L 385.143125 117.154844 
L 385.431519 123.262171 
L 385.575716 124.844733 
L 385.647814 124.288349 
L 385.719912 123.943833 
L 385.936208 123.669326 
L 386.080404 122.147561 
L 386.152503 122.114399 
L 386.224601 121.231922 
L 386.512995 120.277595 
L 386.585093 120.776867 
L 386.72929 119.076395 
L 387.017684 118.575281 
L 387.089782 118.190234 
L 387.161881 118.256558 
L 387.233979 118.844261 
L 387.450274 118.501588 
L 387.522373 119.374853 
L 387.594471 117.197218 
L 387.738668 118.610285 
L 387.954963 118.943747 
L 388.243357 116.339613 
L 388.603849 115.052744 
L 388.748046 114.319497 
L 388.964341 115.141176 
L 389.180637 120.347603 
L 389.252735 121.178495 
L 389.541129 120.167055 
L 389.613227 118.464741 
L 389.685325 118.536592 
L 389.757424 118.846104 
L 389.973719 117.197218 
L 390.262113 119.896232 
L 390.478408 119.969926 
L 390.550507 120.30523 
L 390.622605 120.014142 
L 390.694703 120.24996 
L 390.983097 117.495675 
L 391.055195 117.705701 
L 391.199392 116.583721 
L 391.271491 116.791905 
L 391.704081 110.806172 
L 391.77618 104.711741 
L 392.064573 102.395931 
L 392.20877 99.147901 
L 392.280869 99.965896 
L 392.497164 98.416496 
L 392.641361 99.125793 
L 392.713459 98.932349 
L 392.785558 99.070523 
L 393.001853 98.318852 
L 393.073951 97.325836 
L 393.14605 101.460027 
L 393.218148 99.925365 
L 393.650739 94.930806 
L 393.794935 92.045716 
L 394.083329 91.51144 
L 394.155428 93.184276 
L 394.227526 92.963196 
L 394.299624 91.520651 
L 394.51592 90.091003 
L 394.588018 91.417481 
L 394.732215 90.017309 
L 394.804313 96.310712 
L 395.020609 97.841689 
L 395.092707 96.240703 
L 395.164805 96.714182 
L 395.309002 98.429392 
L 395.525298 95.371123 
L 395.597396 96.518895 
L 395.813691 93.368509 
L 396.029986 95.947773 
L 396.102085 100.369367 
L 396.174183 97.989075 
L 396.31838 103.761098 
L 396.534675 105.64396 
L 396.678872 103.285777 
L 396.750971 104.127722 
L 396.823069 101.710584 
L 397.111463 99.367139 
L 397.327758 95.059769 
L 397.544053 95.23479 
L 397.68825 92.137832 
L 397.760349 92.244687 
L 398.048742 91.117181 
L 398.265038 99.555057 
L 398.337136 98.48282 
L 398.553431 100.846531 
L 398.62553 100.651243 
L 398.697628 100.452272 
L 398.769726 101.804543 
L 398.841825 100.793103 
L 399.05812 100.800472 
L 399.130219 101.087876 
L 399.202317 101.845074 
L 399.274415 104.883078 
L 399.346514 103.685562 
L 399.707006 101.073137 
L 399.851203 104.405914 
L 400.067498 105.384192 
L 400.211695 101.384491 
L 400.355892 103.610027 
L 400.572187 104.046659 
L 400.788482 99.0521 
L 400.860581 99.650858 
L 401.148974 101.587148 
L 401.221073 101.487662 
L 401.293171 100.037747 
L 401.36527 101.600044 
L 401.581565 101.253686 
L 401.725762 99.936419 
L 401.869959 102.72755 
L 402.086254 103.748202 
L 402.302549 100.468853 
L 402.590943 102.913626 
L 402.663041 102.333292 
L 402.879336 95.647473 
L 403.095632 96.798929 
L 403.16773 95.949615 
L 403.239829 96.92605 
L 403.384025 91.977549 
L 403.600321 92.222579 
L 403.672419 93.053471 
L 403.816616 89.76491 
L 403.888714 89.355912 
L 404.10501 89.083247 
L 404.249206 88.458697 
L 404.321305 90.466838 
L 404.393403 89.871765 
L 404.609699 93.469837 
L 404.681797 92.92635 
L 404.825994 92.386547 
L 404.898092 84.602699 
L 405.186486 84.718765 
L 405.402781 81.596015 
L 405.619076 82.942758 
L 405.691175 81.153855 
L 406.123765 83.215423 
L 406.195864 83.134361 
L 406.267962 84.0979 
L 406.340061 81.876049 
L 406.412159 84.193701 
L 406.628454 84.420308 
L 406.772651 81.240445 
L 406.916848 80.392972 
L 407.133143 77.539202 
L 407.205242 79.145714 
L 407.421537 86.187103 
L 407.637832 88.61898 
L 407.926226 81.708397 
L 408.142521 81.231233 
L 408.21462 81.820779 
L 408.358816 80.217951 
L 408.430915 77.541044 
L 408.64721 75.129433 
L 408.935604 78.119536 
L 409.223997 78.674078 
L 409.440293 80.96778 
L 409.728686 77.318122 
L 409.944982 70.486759 
L 410.161277 69.764565 
L 410.305474 70.514394 
L 410.377572 70.193828 
L 410.449671 66.735773 
L 410.738064 66.726562 
L 410.95436 64.368378 
L 411.459049 56.251068 
L 411.675344 56.45004 
L 411.747442 58.128403 
L 411.819541 57.234873 
L 411.891639 57.350939 
L 411.963737 68.845242 
L 412.180033 78.137959 
L 412.180033 78.137959 
" style="fill:none;stroke:#e24a33;stroke-linecap:square;stroke-width:1.5;"/>
   </g>
   <g id="line2d_30">
    <path clip-path="url(#p5b27a0f321)" d="M 412.268654 76.281963 
L 412.412851 71.157865 
L 412.484949 72.110748 
L 412.701244 73.932187 
L 412.989638 76.86079 
L 413.278032 66.367953 
L 413.35013 65.578655 
L 413.422228 65.908707 
L 413.494327 66.325277 
L 413.566425 66.008742 
L 413.782721 61.08611 
L 413.854819 61.697311 
L 413.999016 56.535736 
L 414.071114 54.086434 
L 414.143213 55.230797 
L 414.287409 52.154182 
L 414.359508 52.225436 
L 414.431606 53.923459 
L 414.503705 53.033225 
L 414.575803 53.255307 
L 414.72 75.392106 
L 414.72 75.392106 
" style="fill:none;stroke:#348abd;stroke-linecap:square;stroke-width:1.5;"/>
   </g>
   <g id="patch_3">
    <path d="M 57.6 276.48 
L 57.6 41.472 
" style="fill:none;stroke:#ffffff;stroke-linecap:square;stroke-linejoin:miter;"/>
   </g>
   <g id="patch_4">
    <path d="M 414.72 276.48 
L 414.72 41.472 
" style="fill:none;stroke:#ffffff;stroke-linecap:square;stroke-linejoin:miter;"/>
   </g>
   <g id="patch_5">
    <path d="M 57.6 276.48 
L 414.72 276.48 
" style="fill:none;stroke:#ffffff;stroke-linecap:square;stroke-linejoin:miter;"/>
   </g>
   <g id="patch_6">
    <path d="M 57.6 41.472 
L 414.72 41.472 
" style="fill:none;stroke:#ffffff;stroke-linecap:square;stroke-linejoin:miter;"/>
   </g>
   <g id="legend_1">
    <g id="patch_7">
     <path d="M 326.155938 271.48 
L 407.72 271.48 
Q 409.72 271.48 409.72 269.48 
L 409.72 241.12375 
Q 409.72 239.12375 407.72 239.12375 
L 326.155938 239.12375 
Q 324.155938 239.12375 324.155938 241.12375 
L 324.155938 269.48 
Q 324.155938 271.48 326.155938 271.48 
z
" style="fill:#e5e5e5;opacity:0.8;stroke:#cccccc;stroke-linejoin:miter;stroke-width:0.5;"/>
    </g>
    <g id="line2d_31">
     <path d="M 328.155938 247.222187 
L 348.155938 247.222187 
" style="fill:none;stroke:#e24a33;stroke-linecap:square;stroke-width:1.5;"/>
    </g>
    <g id="line2d_32"/>
    <g id="text_17">
     <!-- Adj. Close -->
     <defs>
      <path d="M 34.1875 63.1875 
L 20.796875 26.90625 
L 47.609375 26.90625 
z
M 28.609375 72.90625 
L 39.796875 72.90625 
L 67.578125 0 
L 57.328125 0 
L 50.6875 18.703125 
L 17.828125 18.703125 
L 11.1875 0 
L 0.78125 0 
z
" id="DejaVuSans-65"/>
      <path d="M 9.421875 54.6875 
L 18.40625 54.6875 
L 18.40625 -0.984375 
Q 18.40625 -11.421875 14.421875 -16.109375 
Q 10.453125 -20.796875 1.609375 -20.796875 
L -1.8125 -20.796875 
L -1.8125 -13.1875 
L 0.59375 -13.1875 
Q 5.71875 -13.1875 7.5625 -10.8125 
Q 9.421875 -8.453125 9.421875 -0.984375 
z
M 9.421875 75.984375 
L 18.40625 75.984375 
L 18.40625 64.59375 
L 9.421875 64.59375 
z
" id="DejaVuSans-106"/>
      <path d="M 10.6875 12.40625 
L 21 12.40625 
L 21 0 
L 10.6875 0 
z
" id="DejaVuSans-46"/>
      <path id="DejaVuSans-32"/>
      <path d="M 64.40625 67.28125 
L 64.40625 56.890625 
Q 59.421875 61.53125 53.78125 63.8125 
Q 48.140625 66.109375 41.796875 66.109375 
Q 29.296875 66.109375 22.65625 58.46875 
Q 16.015625 50.828125 16.015625 36.375 
Q 16.015625 21.96875 22.65625 14.328125 
Q 29.296875 6.6875 41.796875 6.6875 
Q 48.140625 6.6875 53.78125 8.984375 
Q 59.421875 11.28125 64.40625 15.921875 
L 64.40625 5.609375 
Q 59.234375 2.09375 53.4375 0.328125 
Q 47.65625 -1.421875 41.21875 -1.421875 
Q 24.65625 -1.421875 15.125 8.703125 
Q 5.609375 18.84375 5.609375 36.375 
Q 5.609375 53.953125 15.125 64.078125 
Q 24.65625 74.21875 41.21875 74.21875 
Q 47.75 74.21875 53.53125 72.484375 
Q 59.328125 70.75 64.40625 67.28125 
z
" id="DejaVuSans-67"/>
      <path d="M 9.421875 75.984375 
L 18.40625 75.984375 
L 18.40625 0 
L 9.421875 0 
z
" id="DejaVuSans-108"/>
      <path d="M 30.609375 48.390625 
Q 23.390625 48.390625 19.1875 42.75 
Q 14.984375 37.109375 14.984375 27.296875 
Q 14.984375 17.484375 19.15625 11.84375 
Q 23.34375 6.203125 30.609375 6.203125 
Q 37.796875 6.203125 41.984375 11.859375 
Q 46.1875 17.53125 46.1875 27.296875 
Q 46.1875 37.015625 41.984375 42.703125 
Q 37.796875 48.390625 30.609375 48.390625 
z
M 30.609375 56 
Q 42.328125 56 49.015625 48.375 
Q 55.71875 40.765625 55.71875 27.296875 
Q 55.71875 13.875 49.015625 6.21875 
Q 42.328125 -1.421875 30.609375 -1.421875 
Q 18.84375 -1.421875 12.171875 6.21875 
Q 5.515625 13.875 5.515625 27.296875 
Q 5.515625 40.765625 12.171875 48.375 
Q 18.84375 56 30.609375 56 
z
" id="DejaVuSans-111"/>
      <path d="M 44.28125 53.078125 
L 44.28125 44.578125 
Q 40.484375 46.53125 36.375 47.5 
Q 32.28125 48.484375 27.875 48.484375 
Q 21.1875 48.484375 17.84375 46.4375 
Q 14.5 44.390625 14.5 40.28125 
Q 14.5 37.15625 16.890625 35.375 
Q 19.28125 33.59375 26.515625 31.984375 
L 29.59375 31.296875 
Q 39.15625 29.25 43.1875 25.515625 
Q 47.21875 21.78125 47.21875 15.09375 
Q 47.21875 7.46875 41.1875 3.015625 
Q 35.15625 -1.421875 24.609375 -1.421875 
Q 20.21875 -1.421875 15.453125 -0.5625 
Q 10.6875 0.296875 5.421875 2 
L 5.421875 11.28125 
Q 10.40625 8.6875 15.234375 7.390625 
Q 20.0625 6.109375 24.8125 6.109375 
Q 31.15625 6.109375 34.5625 8.28125 
Q 37.984375 10.453125 37.984375 14.40625 
Q 37.984375 18.0625 35.515625 20.015625 
Q 33.0625 21.96875 24.703125 23.78125 
L 21.578125 24.515625 
Q 13.234375 26.265625 9.515625 29.90625 
Q 5.8125 33.546875 5.8125 39.890625 
Q 5.8125 47.609375 11.28125 51.796875 
Q 16.75 56 26.8125 56 
Q 31.78125 56 36.171875 55.265625 
Q 40.578125 54.546875 44.28125 53.078125 
z
" id="DejaVuSans-115"/>
     </defs>
     <g transform="translate(356.155938 250.722187)scale(0.1 -0.1)">
      <use xlink:href="#DejaVuSans-65"/>
      <use x="68.392578" xlink:href="#DejaVuSans-100"/>
      <use x="131.869141" xlink:href="#DejaVuSans-106"/>
      <use x="159.652344" xlink:href="#DejaVuSans-46"/>
      <use x="191.439453" xlink:href="#DejaVuSans-32"/>
      <use x="223.226562" xlink:href="#DejaVuSans-67"/>
      <use x="293.050781" xlink:href="#DejaVuSans-108"/>
      <use x="320.833984" xlink:href="#DejaVuSans-111"/>
      <use x="382.015625" xlink:href="#DejaVuSans-115"/>
      <use x="434.115234" xlink:href="#DejaVuSans-101"/>
     </g>
    </g>
    <g id="line2d_33">
     <path d="M 328.155938 261.900312 
L 348.155938 261.900312 
" style="fill:none;stroke:#348abd;stroke-linecap:square;stroke-width:1.5;"/>
    </g>
    <g id="line2d_34"/>
    <g id="text_18">
     <!-- Forecast -->
     <defs>
      <path d="M 9.8125 72.90625 
L 51.703125 72.90625 
L 51.703125 64.59375 
L 19.671875 64.59375 
L 19.671875 43.109375 
L 48.578125 43.109375 
L 48.578125 34.8125 
L 19.671875 34.8125 
L 19.671875 0 
L 9.8125 0 
z
" id="DejaVuSans-70"/>
     </defs>
     <g transform="translate(356.155938 265.400312)scale(0.1 -0.1)">
      <use xlink:href="#DejaVuSans-70"/>
      <use x="57.472656" xlink:href="#DejaVuSans-111"/>
      <use x="118.654297" xlink:href="#DejaVuSans-114"/>
      <use x="159.736328" xlink:href="#DejaVuSans-101"/>
      <use x="221.259766" xlink:href="#DejaVuSans-99"/>
      <use x="276.240234" xlink:href="#DejaVuSans-97"/>
      <use x="337.519531" xlink:href="#DejaVuSans-115"/>
      <use x="389.619141" xlink:href="#DejaVuSans-116"/>
     </g>
    </g>
   </g>
  </g>
 </g>
 <defs>
  <clipPath id="p5b27a0f321">
   <rect height="235.008" width="357.12" x="57.6" y="41.472"/>
  </clipPath>
 </defs>
</svg>
